G04 PROTEUS GERBER X2 FILE*
%TF.GenerationSoftware,Labcenter,Proteus,8.12-SP2-Build31155*%
%TF.CreationDate,2021-12-06T20:36:36+00:00*%
%TF.FileFunction,Soldermask,Bot*%
%TF.FilePolarity,Negative*%
%TF.Part,Single*%
%TF.SameCoordinates,{41aeb68f-70a9-4567-b6d7-def337a2806a}*%
%FSLAX45Y45*%
%MOMM*%
G01*
%TA.AperFunction,Material*%
%ADD26C,1.778000*%
%AMPPAD019*
4,1,36,
0.762000,0.635000,
0.762000,-0.635000,
0.759470,-0.660970,
0.752200,-0.684980,
0.740650,-0.706580,
0.725290,-0.725290,
0.706570,-0.740650,
0.684980,-0.752200,
0.660970,-0.759470,
0.635000,-0.762000,
-0.635000,-0.762000,
-0.660970,-0.759470,
-0.684980,-0.752200,
-0.706570,-0.740650,
-0.725290,-0.725290,
-0.740650,-0.706580,
-0.752200,-0.684980,
-0.759470,-0.660970,
-0.762000,-0.635000,
-0.762000,0.635000,
-0.759470,0.660970,
-0.752200,0.684980,
-0.740650,0.706580,
-0.725290,0.725290,
-0.706570,0.740650,
-0.684980,0.752200,
-0.660970,0.759470,
-0.635000,0.762000,
0.635000,0.762000,
0.660970,0.759470,
0.684980,0.752200,
0.706570,0.740650,
0.725290,0.725290,
0.740650,0.706580,
0.752200,0.684980,
0.759470,0.660970,
0.762000,0.635000,
0*%
%TA.AperFunction,Material*%
%ADD27PPAD019*%
%ADD28C,1.524000*%
%AMPPAD021*
4,1,36,
1.016000,-1.143000,
-1.016000,-1.143000,
-1.041970,-1.140470,
-1.065980,-1.133200,
-1.087580,-1.121650,
-1.106290,-1.106290,
-1.121650,-1.087570,
-1.133200,-1.065980,
-1.140470,-1.041970,
-1.143000,-1.016000,
-1.143000,1.016000,
-1.140470,1.041970,
-1.133200,1.065980,
-1.121650,1.087570,
-1.106290,1.106290,
-1.087580,1.121650,
-1.065980,1.133200,
-1.041970,1.140470,
-1.016000,1.143000,
1.016000,1.143000,
1.041970,1.140470,
1.065980,1.133200,
1.087580,1.121650,
1.106290,1.106290,
1.121650,1.087570,
1.133200,1.065980,
1.140470,1.041970,
1.143000,1.016000,
1.143000,-1.016000,
1.140470,-1.041970,
1.133200,-1.065980,
1.121650,-1.087570,
1.106290,-1.106290,
1.087580,-1.121650,
1.065980,-1.133200,
1.041970,-1.140470,
1.016000,-1.143000,
0*%
%TA.AperFunction,Material*%
%ADD29PPAD021*%
%AMPPAD022*
4,1,36,
1.143000,1.016000,
1.143000,-1.016000,
1.140470,-1.041970,
1.133200,-1.065980,
1.121650,-1.087580,
1.106290,-1.106290,
1.087570,-1.121650,
1.065980,-1.133200,
1.041970,-1.140470,
1.016000,-1.143000,
-1.016000,-1.143000,
-1.041970,-1.140470,
-1.065980,-1.133200,
-1.087570,-1.121650,
-1.106290,-1.106290,
-1.121650,-1.087580,
-1.133200,-1.065980,
-1.140470,-1.041970,
-1.143000,-1.016000,
-1.143000,1.016000,
-1.140470,1.041970,
-1.133200,1.065980,
-1.121650,1.087580,
-1.106290,1.106290,
-1.087570,1.121650,
-1.065980,1.133200,
-1.041970,1.140470,
-1.016000,1.143000,
1.016000,1.143000,
1.041970,1.140470,
1.065980,1.133200,
1.087570,1.121650,
1.106290,1.106290,
1.121650,1.087580,
1.133200,1.065980,
1.140470,1.041970,
1.143000,1.016000,
0*%
%TA.AperFunction,Material*%
%ADD72PPAD022*%
%AMPPAD023*
4,1,36,
-0.635000,0.762000,
0.635000,0.762000,
0.660970,0.759470,
0.684980,0.752200,
0.706580,0.740650,
0.725290,0.725290,
0.740650,0.706570,
0.752200,0.684980,
0.759470,0.660970,
0.762000,0.635000,
0.762000,-0.635000,
0.759470,-0.660970,
0.752200,-0.684980,
0.740650,-0.706570,
0.725290,-0.725290,
0.706580,-0.740650,
0.684980,-0.752200,
0.660970,-0.759470,
0.635000,-0.762000,
-0.635000,-0.762000,
-0.660970,-0.759470,
-0.684980,-0.752200,
-0.706580,-0.740650,
-0.725290,-0.725290,
-0.740650,-0.706570,
-0.752200,-0.684980,
-0.759470,-0.660970,
-0.762000,-0.635000,
-0.762000,0.635000,
-0.759470,0.660970,
-0.752200,0.684980,
-0.740650,0.706570,
-0.725290,0.725290,
-0.706580,0.740650,
-0.684980,0.752200,
-0.660970,0.759470,
-0.635000,0.762000,
0*%
%TA.AperFunction,Material*%
%ADD73PPAD023*%
%AMPPAD024*
4,1,4,
0.723900,-0.228600,
0.723900,0.228600,
-0.723900,0.228600,
-0.723900,-0.228600,
0.723900,-0.228600,
0*%
%TA.AperFunction,Material*%
%ADD30PPAD024*%
%AMPPAD025*
4,1,4,
-0.228600,-0.723900,
0.228600,-0.723900,
0.228600,0.723900,
-0.228600,0.723900,
-0.228600,-0.723900,
0*%
%ADD31PPAD025*%
%AMPPAD026*
4,1,4,
0.520700,-0.279400,
0.520700,0.279400,
-0.520700,0.279400,
-0.520700,-0.279400,
0.520700,-0.279400,
0*%
%TA.AperFunction,Material*%
%ADD32PPAD026*%
%AMPPAD027*
4,1,4,
0.571500,1.346200,
-0.571500,1.346200,
-0.571500,-1.346200,
0.571500,-1.346200,
0.571500,1.346200,
0*%
%TA.AperFunction,Material*%
%ADD33PPAD027*%
%AMPPAD028*
4,1,4,
0.571500,0.723900,
-0.571500,0.723900,
-0.571500,-0.723900,
0.571500,-0.723900,
0.571500,0.723900,
0*%
%ADD34PPAD028*%
%TA.AperFunction,Profile*%
%ADD17C,0.203200*%
%TD.AperFunction*%
D26*
X+641000Y+4876000D03*
X+260000Y+4622000D03*
X+641000Y+4622000D03*
X+260000Y+4368000D03*
X+641000Y+4368000D03*
X+260000Y+4114000D03*
X+641000Y+4114000D03*
X+260000Y+3860000D03*
X+641000Y+3860000D03*
X+260000Y+3606000D03*
X+641000Y+3606000D03*
X+260000Y+3352000D03*
X+641000Y+3352000D03*
X+260000Y+3098000D03*
X+641000Y+3098000D03*
X+260000Y+2844000D03*
X+641000Y+2844000D03*
X+260000Y+2590000D03*
X+641000Y+2590000D03*
X+260000Y+2336000D03*
X+641000Y+2336000D03*
X+260000Y+2082000D03*
X+641000Y+2082000D03*
X+260000Y+1828000D03*
X+641000Y+1828000D03*
X+260000Y+1574000D03*
X+641000Y+1574000D03*
X+260000Y+1320000D03*
X+641000Y+1320000D03*
X+260000Y+1066000D03*
X+641000Y+1066000D03*
X+260000Y+812000D03*
X+641000Y+812000D03*
X+260000Y+558000D03*
X+641000Y+558000D03*
X+260000Y+304000D03*
X+641000Y+304000D03*
X+6737000Y+4880000D03*
X+6356000Y+4626000D03*
X+6737000Y+4626000D03*
X+6356000Y+4372000D03*
X+6737000Y+4372000D03*
X+6356000Y+4118000D03*
X+6737000Y+4118000D03*
X+6356000Y+3864000D03*
X+6737000Y+3864000D03*
X+6356000Y+3610000D03*
X+6737000Y+3610000D03*
X+6356000Y+3356000D03*
X+6737000Y+3356000D03*
X+6356000Y+3102000D03*
X+6737000Y+3102000D03*
X+6356000Y+2848000D03*
X+6737000Y+2848000D03*
X+6356000Y+2594000D03*
X+6737000Y+2594000D03*
X+6356000Y+2340000D03*
X+6737000Y+2340000D03*
X+6356000Y+2086000D03*
X+6737000Y+2086000D03*
X+6356000Y+1832000D03*
X+6737000Y+1832000D03*
X+6356000Y+1578000D03*
X+6737000Y+1578000D03*
X+6356000Y+1324000D03*
X+6737000Y+1324000D03*
X+6356000Y+1070000D03*
X+6737000Y+1070000D03*
X+6356000Y+816000D03*
X+6737000Y+816000D03*
X+6356000Y+562000D03*
X+6737000Y+562000D03*
X+6356000Y+308000D03*
X+6737000Y+308000D03*
D27*
X+1500000Y+3250000D03*
D28*
X+1500000Y+2996000D03*
X+1500000Y+2742000D03*
X+1500000Y+2488000D03*
X+1500000Y+2234000D03*
X+1500000Y+1980000D03*
X+1500000Y+1726000D03*
X+1500000Y+1472000D03*
X+2262000Y+1472000D03*
X+2262000Y+1726000D03*
X+2262000Y+1980000D03*
X+2262000Y+2234000D03*
X+2262000Y+2488000D03*
X+2262000Y+2742000D03*
X+2262000Y+2996000D03*
X+2262000Y+3250000D03*
D27*
X+2950000Y+2380000D03*
D28*
X+2950000Y+2126000D03*
X+2950000Y+1872000D03*
X+2950000Y+1618000D03*
X+2950000Y+1364000D03*
X+2950000Y+1110000D03*
X+2950000Y+856000D03*
X+2950000Y+602000D03*
X+3712000Y+602000D03*
X+3712000Y+856000D03*
X+3712000Y+1110000D03*
X+3712000Y+1364000D03*
X+3712000Y+1618000D03*
X+3712000Y+1872000D03*
X+3712000Y+2126000D03*
X+3712000Y+2380000D03*
D29*
X+5750000Y+1500000D03*
X+5496000Y+1500000D03*
X+5242000Y+1500000D03*
X+4988000Y+1500000D03*
D72*
X+5230000Y+5500000D03*
X+5230000Y+5246000D03*
X+5230000Y+4992000D03*
X+5230000Y+4738000D03*
X+5230000Y+4484000D03*
X+5230000Y+4230000D03*
X+5230000Y+3976000D03*
D29*
X+5750000Y+750000D03*
X+5496000Y+750000D03*
X+5242000Y+750000D03*
X+4988000Y+750000D03*
X+5750000Y+1100000D03*
X+5496000Y+1100000D03*
X+5242000Y+1100000D03*
X+4988000Y+1100000D03*
X+4050000Y+3250000D03*
X+4304000Y+3250000D03*
X+4558000Y+3250000D03*
X+4812000Y+3250000D03*
X+5066000Y+3250000D03*
X+5320000Y+3250000D03*
D72*
X+4550000Y+1750000D03*
X+4550000Y+1496000D03*
X+4550000Y+1242000D03*
X+4550000Y+988000D03*
X+4550000Y+734000D03*
X+4550000Y+480000D03*
X+2600000Y+3150000D03*
X+2600000Y+2896000D03*
X+2600000Y+2642000D03*
X+2600000Y+2388000D03*
X+2600000Y+2134000D03*
X+2600000Y+1880000D03*
X+1100000Y+2750000D03*
X+1100000Y+2496000D03*
X+1100000Y+2242000D03*
X+1100000Y+1988000D03*
X+1100000Y+1734000D03*
X+1100000Y+1480000D03*
X+4100000Y+1750000D03*
X+4100000Y+1496000D03*
X+4100000Y+1242000D03*
X+4100000Y+988000D03*
X+4100000Y+734000D03*
X+4100000Y+480000D03*
X+2550000Y+1530000D03*
X+2550000Y+1276000D03*
X+2550000Y+1022000D03*
X+2550000Y+768000D03*
X+2550000Y+514000D03*
X+2550000Y+260000D03*
D29*
X+3150000Y+100000D03*
X+3404000Y+100000D03*
X+5000000Y+350000D03*
X+5254000Y+350000D03*
X+5508000Y+350000D03*
X+5762000Y+350000D03*
D73*
X+4074000Y+2062000D03*
D28*
X+4328000Y+2062000D03*
X+4582000Y+2062000D03*
X+4836000Y+2062000D03*
X+5090000Y+2062000D03*
X+5344000Y+2062000D03*
X+5598000Y+2062000D03*
X+5852000Y+2062000D03*
X+5852000Y+2824000D03*
X+5598000Y+2824000D03*
X+5344000Y+2824000D03*
X+5090000Y+2824000D03*
X+4836000Y+2824000D03*
X+4582000Y+2824000D03*
X+4328000Y+2824000D03*
X+4074000Y+2824000D03*
D29*
X+1150000Y+3650000D03*
X+1404000Y+3650000D03*
X+1150000Y+4150000D03*
X+1404000Y+4150000D03*
X+1150000Y+4750000D03*
X+1404000Y+4750000D03*
X+1100000Y+900000D03*
X+1354000Y+900000D03*
X+1100000Y+350000D03*
X+1354000Y+350000D03*
X+1800000Y+900000D03*
X+2054000Y+900000D03*
X+5650000Y+4650000D03*
X+5904000Y+4650000D03*
X+5650000Y+4150000D03*
X+5904000Y+4150000D03*
X+5650000Y+3650000D03*
X+5904000Y+3650000D03*
D30*
X+2150000Y+415000D03*
X+2150000Y+350000D03*
X+2150000Y+285000D03*
X+2150000Y+220000D03*
X+1710000Y+220000D03*
X+1710000Y+285000D03*
X+1710000Y+350000D03*
X+1710000Y+415000D03*
X+3600000Y+3115000D03*
X+3600000Y+3050000D03*
X+3600000Y+2985000D03*
X+3600000Y+2920000D03*
X+3160000Y+2920000D03*
X+3160000Y+2985000D03*
X+3160000Y+3050000D03*
X+3160000Y+3115000D03*
X+700000Y+5715000D03*
X+700000Y+5650000D03*
X+700000Y+5585000D03*
X+700000Y+5520000D03*
X+260000Y+5520000D03*
X+260000Y+5585000D03*
X+260000Y+5650000D03*
X+260000Y+5715000D03*
X+6700000Y+5715000D03*
X+6700000Y+5650000D03*
X+6700000Y+5585000D03*
X+6700000Y+5520000D03*
X+6260000Y+5520000D03*
X+6260000Y+5585000D03*
X+6260000Y+5650000D03*
X+6260000Y+5715000D03*
D31*
X+5785000Y+5390000D03*
X+5720000Y+5390000D03*
X+5655000Y+5390000D03*
X+5590000Y+5390000D03*
X+5590000Y+5830000D03*
X+5655000Y+5830000D03*
X+5720000Y+5830000D03*
X+5785000Y+5830000D03*
D32*
X+1700000Y+5695000D03*
X+1700000Y+5600000D03*
X+1700000Y+5505000D03*
X+1430000Y+5505000D03*
X+1430000Y+5695000D03*
D30*
X+6050000Y+3215000D03*
X+6050000Y+3150000D03*
X+6050000Y+3085000D03*
X+6050000Y+3020000D03*
X+5610000Y+3020000D03*
X+5610000Y+3085000D03*
X+5610000Y+3150000D03*
X+5610000Y+3215000D03*
D33*
X+1850000Y+5090000D03*
X+1550000Y+5090000D03*
X+1860000Y+4450000D03*
X+1560000Y+4450000D03*
D34*
X+1850000Y+3970000D03*
X+1670000Y+3970000D03*
X+3430000Y+2270000D03*
X+3250000Y+2270000D03*
D33*
X+3500000Y+1800000D03*
X+3200000Y+1800000D03*
X+3460000Y+1270000D03*
X+3160000Y+1270000D03*
X+3440000Y+740000D03*
X+3140000Y+740000D03*
D34*
X+4250000Y+2410000D03*
X+4070000Y+2410000D03*
X+4670000Y+2410000D03*
X+4490000Y+2410000D03*
X+1950000Y+3160000D03*
X+1770000Y+3160000D03*
X+1940000Y+2720000D03*
X+1760000Y+2720000D03*
X+1960000Y+2310000D03*
X+1780000Y+2310000D03*
X+1960000Y+1910000D03*
X+1780000Y+1910000D03*
X+3460000Y+2590000D03*
X+3280000Y+2590000D03*
X+5280000Y+2400000D03*
X+5100000Y+2400000D03*
X+1950000Y+1550000D03*
X+1770000Y+1550000D03*
X+5730000Y+2410000D03*
X+5550000Y+2410000D03*
D17*
X+0Y+0D02*
X+1650000Y+0D01*
X+7000000Y+0D02*
X+7000000Y+6000000D01*
X+5000000Y+6000000D01*
X+5000000Y+3700000D01*
X+4800000Y+3500000D01*
X+2200000Y+3500000D01*
X+2000000Y+3700000D02*
X+2000000Y+6000000D01*
X+0Y+6000000D01*
X+0Y+0D01*
X+2000000Y+3700000D02*
X+2200000Y+3500000D01*
X+5160000Y+0D02*
X+7000000Y+0D01*
X+1750000Y-200000D02*
X+5050000Y-200000D01*
X+1650000Y+0D02*
X+1750000Y-200000D01*
X+5160000Y+0D02*
X+5050000Y-200000D01*
X+4550045Y+50000D02*
X+4549508Y+63142D01*
X+4545144Y+89427D01*
X+4536029Y+115712D01*
X+4521182Y+141997D01*
X+4498470Y+168118D01*
X+4472185Y+187898D01*
X+4445900Y+200658D01*
X+4419615Y+208108D01*
X+4393330Y+210987D01*
X+4389000Y+211045D01*
X+4227955Y+50000D02*
X+4228492Y+63142D01*
X+4232856Y+89427D01*
X+4241971Y+115712D01*
X+4256818Y+141997D01*
X+4279530Y+168118D01*
X+4305815Y+187898D01*
X+4332100Y+200658D01*
X+4358385Y+208108D01*
X+4384670Y+210987D01*
X+4389000Y+211045D01*
X+4227955Y+50000D02*
X+4228492Y+36858D01*
X+4232856Y+10573D01*
X+4241971Y-15712D01*
X+4256818Y-41997D01*
X+4279530Y-68118D01*
X+4305815Y-87898D01*
X+4332100Y-100658D01*
X+4358385Y-108108D01*
X+4384670Y-110987D01*
X+4389000Y-111045D01*
X+4550045Y+50000D02*
X+4549508Y+36858D01*
X+4545144Y+10573D01*
X+4536029Y-15712D01*
X+4521182Y-41997D01*
X+4498470Y-68118D01*
X+4472185Y-87898D01*
X+4445900Y-100658D01*
X+4419615Y-108108D01*
X+4393330Y-110987D01*
X+4389000Y-111045D01*
X+6074045Y+5130000D02*
X+6073508Y+5143142D01*
X+6069144Y+5169427D01*
X+6060029Y+5195712D01*
X+6045182Y+5221997D01*
X+6022470Y+5248118D01*
X+5996185Y+5267898D01*
X+5969900Y+5280658D01*
X+5943615Y+5288108D01*
X+5917330Y+5290987D01*
X+5913000Y+5291045D01*
X+5751955Y+5130000D02*
X+5752492Y+5143142D01*
X+5756856Y+5169427D01*
X+5765971Y+5195712D01*
X+5780818Y+5221997D01*
X+5803530Y+5248118D01*
X+5829815Y+5267898D01*
X+5856100Y+5280658D01*
X+5882385Y+5288108D01*
X+5908670Y+5290987D01*
X+5913000Y+5291045D01*
X+5751955Y+5130000D02*
X+5752492Y+5116858D01*
X+5756856Y+5090573D01*
X+5765971Y+5064288D01*
X+5780818Y+5038003D01*
X+5803530Y+5011882D01*
X+5829815Y+4992102D01*
X+5856100Y+4979342D01*
X+5882385Y+4971892D01*
X+5908670Y+4969013D01*
X+5913000Y+4968955D01*
X+6074045Y+5130000D02*
X+6073508Y+5116858D01*
X+6069144Y+5090573D01*
X+6060029Y+5064288D01*
X+6045182Y+5038003D01*
X+6022470Y+5011882D01*
X+5996185Y+4992102D01*
X+5969900Y+4979342D01*
X+5943615Y+4971892D01*
X+5917330Y+4969013D01*
X+5913000Y+4968955D01*
X+1248045Y+5257000D02*
X+1247508Y+5270142D01*
X+1243144Y+5296427D01*
X+1234029Y+5322712D01*
X+1219182Y+5348997D01*
X+1196470Y+5375118D01*
X+1170185Y+5394898D01*
X+1143900Y+5407658D01*
X+1117615Y+5415108D01*
X+1091330Y+5417987D01*
X+1087000Y+5418045D01*
X+925955Y+5257000D02*
X+926492Y+5270142D01*
X+930856Y+5296427D01*
X+939971Y+5322712D01*
X+954818Y+5348997D01*
X+977530Y+5375118D01*
X+1003815Y+5394898D01*
X+1030100Y+5407658D01*
X+1056385Y+5415108D01*
X+1082670Y+5417987D01*
X+1087000Y+5418045D01*
X+925955Y+5257000D02*
X+926492Y+5243858D01*
X+930856Y+5217573D01*
X+939971Y+5191288D01*
X+954818Y+5165003D01*
X+977530Y+5138882D01*
X+1003815Y+5119102D01*
X+1030100Y+5106342D01*
X+1056385Y+5098892D01*
X+1082670Y+5096013D01*
X+1087000Y+5095955D01*
X+1248045Y+5257000D02*
X+1247508Y+5243858D01*
X+1243144Y+5217573D01*
X+1234029Y+5191288D01*
X+1219182Y+5165003D01*
X+1196470Y+5138882D01*
X+1170185Y+5119102D01*
X+1143900Y+5106342D01*
X+1117615Y+5098892D01*
X+1091330Y+5096013D01*
X+1087000Y+5095955D01*
M02*
