G04 PROTEUS GERBER X2 FILE*
%TF.GenerationSoftware,Labcenter,Proteus,8.12-SP2-Build31155*%
%TF.CreationDate,2021-12-06T20:36:36+00:00*%
%TF.FileFunction,Legend,Bot*%
%TF.FilePolarity,Positive*%
%TF.Part,Single*%
%TF.SameCoordinates,{41aeb68f-70a9-4567-b6d7-def337a2806a}*%
%FSLAX45Y45*%
%MOMM*%
G01*
%TA.AperFunction,Profile*%
%ADD17C,0.203200*%
%TA.AperFunction,Material*%
%ADD21C,0.203200*%
%ADD22C,0.250000*%
%ADD23C,0.200000*%
%ADD24C,0.100000*%
%TD.AperFunction*%
D17*
X+0Y+0D02*
X+1650000Y+0D01*
X+7000000Y+0D02*
X+7000000Y+6000000D01*
X+5000000Y+6000000D01*
X+5000000Y+3700000D01*
X+4800000Y+3500000D01*
X+2200000Y+3500000D01*
X+2000000Y+3700000D02*
X+2000000Y+6000000D01*
X+0Y+6000000D01*
X+0Y+0D01*
X+2000000Y+3700000D02*
X+2200000Y+3500000D01*
X+5160000Y+0D02*
X+7000000Y+0D01*
X+1750000Y-200000D02*
X+5050000Y-200000D01*
X+1650000Y+0D02*
X+1750000Y-200000D01*
X+5160000Y+0D02*
X+5050000Y-200000D01*
X+4550045Y+50000D02*
X+4549508Y+63142D01*
X+4545144Y+89427D01*
X+4536029Y+115712D01*
X+4521182Y+141997D01*
X+4498470Y+168118D01*
X+4472185Y+187898D01*
X+4445900Y+200658D01*
X+4419615Y+208108D01*
X+4393330Y+210987D01*
X+4389000Y+211045D01*
X+4227955Y+50000D02*
X+4228492Y+63142D01*
X+4232856Y+89427D01*
X+4241971Y+115712D01*
X+4256818Y+141997D01*
X+4279530Y+168118D01*
X+4305815Y+187898D01*
X+4332100Y+200658D01*
X+4358385Y+208108D01*
X+4384670Y+210987D01*
X+4389000Y+211045D01*
X+4227955Y+50000D02*
X+4228492Y+36858D01*
X+4232856Y+10573D01*
X+4241971Y-15712D01*
X+4256818Y-41997D01*
X+4279530Y-68118D01*
X+4305815Y-87898D01*
X+4332100Y-100658D01*
X+4358385Y-108108D01*
X+4384670Y-110987D01*
X+4389000Y-111045D01*
X+4550045Y+50000D02*
X+4549508Y+36858D01*
X+4545144Y+10573D01*
X+4536029Y-15712D01*
X+4521182Y-41997D01*
X+4498470Y-68118D01*
X+4472185Y-87898D01*
X+4445900Y-100658D01*
X+4419615Y-108108D01*
X+4393330Y-110987D01*
X+4389000Y-111045D01*
X+6074045Y+5130000D02*
X+6073508Y+5143142D01*
X+6069144Y+5169427D01*
X+6060029Y+5195712D01*
X+6045182Y+5221997D01*
X+6022470Y+5248118D01*
X+5996185Y+5267898D01*
X+5969900Y+5280658D01*
X+5943615Y+5288108D01*
X+5917330Y+5290987D01*
X+5913000Y+5291045D01*
X+5751955Y+5130000D02*
X+5752492Y+5143142D01*
X+5756856Y+5169427D01*
X+5765971Y+5195712D01*
X+5780818Y+5221997D01*
X+5803530Y+5248118D01*
X+5829815Y+5267898D01*
X+5856100Y+5280658D01*
X+5882385Y+5288108D01*
X+5908670Y+5290987D01*
X+5913000Y+5291045D01*
X+5751955Y+5130000D02*
X+5752492Y+5116858D01*
X+5756856Y+5090573D01*
X+5765971Y+5064288D01*
X+5780818Y+5038003D01*
X+5803530Y+5011882D01*
X+5829815Y+4992102D01*
X+5856100Y+4979342D01*
X+5882385Y+4971892D01*
X+5908670Y+4969013D01*
X+5913000Y+4968955D01*
X+6074045Y+5130000D02*
X+6073508Y+5116858D01*
X+6069144Y+5090573D01*
X+6060029Y+5064288D01*
X+6045182Y+5038003D01*
X+6022470Y+5011882D01*
X+5996185Y+4992102D01*
X+5969900Y+4979342D01*
X+5943615Y+4971892D01*
X+5917330Y+4969013D01*
X+5913000Y+4968955D01*
X+1248045Y+5257000D02*
X+1247508Y+5270142D01*
X+1243144Y+5296427D01*
X+1234029Y+5322712D01*
X+1219182Y+5348997D01*
X+1196470Y+5375118D01*
X+1170185Y+5394898D01*
X+1143900Y+5407658D01*
X+1117615Y+5415108D01*
X+1091330Y+5417987D01*
X+1087000Y+5418045D01*
X+925955Y+5257000D02*
X+926492Y+5270142D01*
X+930856Y+5296427D01*
X+939971Y+5322712D01*
X+954818Y+5348997D01*
X+977530Y+5375118D01*
X+1003815Y+5394898D01*
X+1030100Y+5407658D01*
X+1056385Y+5415108D01*
X+1082670Y+5417987D01*
X+1087000Y+5418045D01*
X+925955Y+5257000D02*
X+926492Y+5243858D01*
X+930856Y+5217573D01*
X+939971Y+5191288D01*
X+954818Y+5165003D01*
X+977530Y+5138882D01*
X+1003815Y+5119102D01*
X+1030100Y+5106342D01*
X+1056385Y+5098892D01*
X+1082670Y+5096013D01*
X+1087000Y+5095955D01*
X+1248045Y+5257000D02*
X+1247508Y+5243858D01*
X+1243144Y+5217573D01*
X+1234029Y+5191288D01*
X+1219182Y+5165003D01*
X+1196470Y+5138882D01*
X+1170185Y+5119102D01*
X+1143900Y+5106342D01*
X+1117615Y+5098892D01*
X+1091330Y+5096013D01*
X+1087000Y+5095955D01*
D21*
X+70000Y+46000D02*
X+830000Y+46000D01*
X+830000Y+5126000D01*
X+70000Y+5126000D01*
X+70000Y+46000D01*
X+545250Y+5181880D02*
X+561125Y+5166640D01*
X+608750Y+5166640D01*
X+640500Y+5197120D01*
X+640500Y+5227600D01*
X+608750Y+5258080D01*
X+561125Y+5258080D01*
X+545250Y+5242840D01*
X+513500Y+5166640D02*
X+513500Y+5258080D01*
X+418250Y+5166640D01*
X+418250Y+5258080D01*
X+370625Y+5258080D02*
X+291250Y+5258080D01*
X+291250Y+5242840D01*
X+370625Y+5166640D01*
X+6166000Y+50000D02*
X+6926000Y+50000D01*
X+6926000Y+5130000D01*
X+6166000Y+5130000D01*
X+6166000Y+50000D01*
X+6704750Y+5185880D02*
X+6720625Y+5170640D01*
X+6768250Y+5170640D01*
X+6800000Y+5201120D01*
X+6800000Y+5231600D01*
X+6768250Y+5262080D01*
X+6720625Y+5262080D01*
X+6704750Y+5246840D01*
X+6673000Y+5170640D02*
X+6673000Y+5262080D01*
X+6577750Y+5170640D01*
X+6577750Y+5262080D01*
X+6514250Y+5231600D02*
X+6482500Y+5262080D01*
X+6482500Y+5170640D01*
X+6419000Y+5185880D02*
X+6419000Y+5246840D01*
X+6403125Y+5262080D01*
X+6339625Y+5262080D01*
X+6323750Y+5246840D01*
X+6323750Y+5185880D01*
X+6339625Y+5170640D01*
X+6403125Y+5170640D01*
X+6419000Y+5185880D01*
X+6419000Y+5170640D02*
X+6323750Y+5262080D01*
D22*
X+2212500Y+492500D02*
X+2212457Y+493539D01*
X+2212105Y+495618D01*
X+2211368Y+497697D01*
X+2210164Y+499776D01*
X+2208323Y+501826D01*
X+2206244Y+503329D01*
X+2204165Y+504286D01*
X+2202086Y+504825D01*
X+2200007Y+505000D01*
X+2200000Y+505000D01*
X+2187500Y+492500D02*
X+2187543Y+493539D01*
X+2187895Y+495618D01*
X+2188632Y+497697D01*
X+2189836Y+499776D01*
X+2191677Y+501826D01*
X+2193756Y+503329D01*
X+2195835Y+504286D01*
X+2197914Y+504825D01*
X+2199993Y+505000D01*
X+2200000Y+505000D01*
X+2187500Y+492500D02*
X+2187543Y+491461D01*
X+2187895Y+489382D01*
X+2188632Y+487303D01*
X+2189836Y+485224D01*
X+2191677Y+483174D01*
X+2193756Y+481671D01*
X+2195835Y+480714D01*
X+2197914Y+480175D01*
X+2199993Y+480000D01*
X+2200000Y+480000D01*
X+2212500Y+492500D02*
X+2212457Y+491461D01*
X+2212105Y+489382D01*
X+2211368Y+487303D01*
X+2210164Y+485224D01*
X+2208323Y+483174D01*
X+2206244Y+481671D01*
X+2204165Y+480714D01*
X+2202086Y+480175D01*
X+2200007Y+480000D01*
X+2200000Y+480000D01*
D23*
X+2040000Y+162500D02*
X+1820000Y+162500D01*
X+1820000Y+472500D01*
X+2040000Y+472500D01*
X+2040000Y+162500D01*
D24*
X+2040000Y+462500D02*
X+2030000Y+472500D01*
X+2040000Y+452500D02*
X+2020000Y+472500D01*
X+2040000Y+442500D02*
X+2010000Y+472500D01*
X+2040000Y+432500D02*
X+2000000Y+472500D01*
X+2040000Y+422500D02*
X+1990000Y+472500D01*
X+2040000Y+412500D02*
X+1980000Y+472500D01*
X+2040000Y+402500D02*
X+1970000Y+472500D01*
X+2040000Y+392500D02*
X+1960000Y+472500D01*
X+2040000Y+382500D02*
X+1950000Y+472500D01*
D21*
X+2057000Y+639420D02*
X+2057000Y+563220D01*
X+2041125Y+547980D01*
X+1977625Y+547980D01*
X+1961750Y+563220D01*
X+1961750Y+639420D01*
X+1834750Y+639420D02*
X+1914125Y+639420D01*
X+1914125Y+608940D01*
X+1850625Y+608940D01*
X+1834750Y+593700D01*
X+1834750Y+563220D01*
X+1850625Y+547980D01*
X+1898250Y+547980D01*
X+1914125Y+563220D01*
D22*
X+3662500Y+3192500D02*
X+3662457Y+3193539D01*
X+3662105Y+3195618D01*
X+3661368Y+3197697D01*
X+3660164Y+3199776D01*
X+3658323Y+3201826D01*
X+3656244Y+3203329D01*
X+3654165Y+3204286D01*
X+3652086Y+3204825D01*
X+3650007Y+3205000D01*
X+3650000Y+3205000D01*
X+3637500Y+3192500D02*
X+3637543Y+3193539D01*
X+3637895Y+3195618D01*
X+3638632Y+3197697D01*
X+3639836Y+3199776D01*
X+3641677Y+3201826D01*
X+3643756Y+3203329D01*
X+3645835Y+3204286D01*
X+3647914Y+3204825D01*
X+3649993Y+3205000D01*
X+3650000Y+3205000D01*
X+3637500Y+3192500D02*
X+3637543Y+3191461D01*
X+3637895Y+3189382D01*
X+3638632Y+3187303D01*
X+3639836Y+3185224D01*
X+3641677Y+3183174D01*
X+3643756Y+3181671D01*
X+3645835Y+3180714D01*
X+3647914Y+3180175D01*
X+3649993Y+3180000D01*
X+3650000Y+3180000D01*
X+3662500Y+3192500D02*
X+3662457Y+3191461D01*
X+3662105Y+3189382D01*
X+3661368Y+3187303D01*
X+3660164Y+3185224D01*
X+3658323Y+3183174D01*
X+3656244Y+3181671D01*
X+3654165Y+3180714D01*
X+3652086Y+3180175D01*
X+3650007Y+3180000D01*
X+3650000Y+3180000D01*
D23*
X+3490000Y+2862500D02*
X+3270000Y+2862500D01*
X+3270000Y+3172500D01*
X+3490000Y+3172500D01*
X+3490000Y+2862500D01*
D24*
X+3490000Y+3162500D02*
X+3480000Y+3172500D01*
X+3490000Y+3152500D02*
X+3470000Y+3172500D01*
X+3490000Y+3142500D02*
X+3460000Y+3172500D01*
X+3490000Y+3132500D02*
X+3450000Y+3172500D01*
X+3490000Y+3122500D02*
X+3440000Y+3172500D01*
X+3490000Y+3112500D02*
X+3430000Y+3172500D01*
X+3490000Y+3102500D02*
X+3420000Y+3172500D01*
X+3490000Y+3092500D02*
X+3410000Y+3172500D01*
X+3490000Y+3082500D02*
X+3400000Y+3172500D01*
D21*
X+3507000Y+3339420D02*
X+3507000Y+3263220D01*
X+3491125Y+3247980D01*
X+3427625Y+3247980D01*
X+3411750Y+3263220D01*
X+3411750Y+3339420D01*
X+3284750Y+3324180D02*
X+3300625Y+3339420D01*
X+3348250Y+3339420D01*
X+3364125Y+3324180D01*
X+3364125Y+3263220D01*
X+3348250Y+3247980D01*
X+3300625Y+3247980D01*
X+3284750Y+3263220D01*
X+3284750Y+3278460D01*
X+3300625Y+3293700D01*
X+3364125Y+3293700D01*
D22*
X+762500Y+5792500D02*
X+762457Y+5793539D01*
X+762105Y+5795618D01*
X+761368Y+5797697D01*
X+760164Y+5799776D01*
X+758323Y+5801826D01*
X+756244Y+5803329D01*
X+754165Y+5804286D01*
X+752086Y+5804825D01*
X+750007Y+5805000D01*
X+750000Y+5805000D01*
X+737500Y+5792500D02*
X+737543Y+5793539D01*
X+737895Y+5795618D01*
X+738632Y+5797697D01*
X+739836Y+5799776D01*
X+741677Y+5801826D01*
X+743756Y+5803329D01*
X+745835Y+5804286D01*
X+747914Y+5804825D01*
X+749993Y+5805000D01*
X+750000Y+5805000D01*
X+737500Y+5792500D02*
X+737543Y+5791461D01*
X+737895Y+5789382D01*
X+738632Y+5787303D01*
X+739836Y+5785224D01*
X+741677Y+5783174D01*
X+743756Y+5781671D01*
X+745835Y+5780714D01*
X+747914Y+5780175D01*
X+749993Y+5780000D01*
X+750000Y+5780000D01*
X+762500Y+5792500D02*
X+762457Y+5791461D01*
X+762105Y+5789382D01*
X+761368Y+5787303D01*
X+760164Y+5785224D01*
X+758323Y+5783174D01*
X+756244Y+5781671D01*
X+754165Y+5780714D01*
X+752086Y+5780175D01*
X+750007Y+5780000D01*
X+750000Y+5780000D01*
D23*
X+590000Y+5462500D02*
X+370000Y+5462500D01*
X+370000Y+5772500D01*
X+590000Y+5772500D01*
X+590000Y+5462500D01*
D24*
X+590000Y+5762500D02*
X+580000Y+5772500D01*
X+590000Y+5752500D02*
X+570000Y+5772500D01*
X+590000Y+5742500D02*
X+560000Y+5772500D01*
X+590000Y+5732500D02*
X+550000Y+5772500D01*
X+590000Y+5722500D02*
X+540000Y+5772500D01*
X+590000Y+5712500D02*
X+530000Y+5772500D01*
X+590000Y+5702500D02*
X+520000Y+5772500D01*
X+590000Y+5692500D02*
X+510000Y+5772500D01*
X+590000Y+5682500D02*
X+500000Y+5772500D01*
D21*
X+607000Y+5939420D02*
X+607000Y+5863220D01*
X+591125Y+5847980D01*
X+527625Y+5847980D01*
X+511750Y+5863220D01*
X+511750Y+5939420D01*
X+448250Y+5893700D02*
X+464125Y+5908940D01*
X+464125Y+5924180D01*
X+448250Y+5939420D01*
X+400625Y+5939420D01*
X+384750Y+5924180D01*
X+384750Y+5908940D01*
X+400625Y+5893700D01*
X+448250Y+5893700D01*
X+464125Y+5878460D01*
X+464125Y+5863220D01*
X+448250Y+5847980D01*
X+400625Y+5847980D01*
X+384750Y+5863220D01*
X+384750Y+5878460D01*
X+400625Y+5893700D01*
D22*
X+6762500Y+5792500D02*
X+6762457Y+5793539D01*
X+6762105Y+5795618D01*
X+6761368Y+5797697D01*
X+6760164Y+5799776D01*
X+6758323Y+5801826D01*
X+6756244Y+5803329D01*
X+6754165Y+5804286D01*
X+6752086Y+5804825D01*
X+6750007Y+5805000D01*
X+6750000Y+5805000D01*
X+6737500Y+5792500D02*
X+6737543Y+5793539D01*
X+6737895Y+5795618D01*
X+6738632Y+5797697D01*
X+6739836Y+5799776D01*
X+6741677Y+5801826D01*
X+6743756Y+5803329D01*
X+6745835Y+5804286D01*
X+6747914Y+5804825D01*
X+6749993Y+5805000D01*
X+6750000Y+5805000D01*
X+6737500Y+5792500D02*
X+6737543Y+5791461D01*
X+6737895Y+5789382D01*
X+6738632Y+5787303D01*
X+6739836Y+5785224D01*
X+6741677Y+5783174D01*
X+6743756Y+5781671D01*
X+6745835Y+5780714D01*
X+6747914Y+5780175D01*
X+6749993Y+5780000D01*
X+6750000Y+5780000D01*
X+6762500Y+5792500D02*
X+6762457Y+5791461D01*
X+6762105Y+5789382D01*
X+6761368Y+5787303D01*
X+6760164Y+5785224D01*
X+6758323Y+5783174D01*
X+6756244Y+5781671D01*
X+6754165Y+5780714D01*
X+6752086Y+5780175D01*
X+6750007Y+5780000D01*
X+6750000Y+5780000D01*
D23*
X+6590000Y+5462500D02*
X+6370000Y+5462500D01*
X+6370000Y+5772500D01*
X+6590000Y+5772500D01*
X+6590000Y+5462500D01*
D24*
X+6590000Y+5762500D02*
X+6580000Y+5772500D01*
X+6590000Y+5752500D02*
X+6570000Y+5772500D01*
X+6590000Y+5742500D02*
X+6560000Y+5772500D01*
X+6590000Y+5732500D02*
X+6550000Y+5772500D01*
X+6590000Y+5722500D02*
X+6540000Y+5772500D01*
X+6590000Y+5712500D02*
X+6530000Y+5772500D01*
X+6590000Y+5702500D02*
X+6520000Y+5772500D01*
X+6590000Y+5692500D02*
X+6510000Y+5772500D01*
X+6590000Y+5682500D02*
X+6500000Y+5772500D01*
D21*
X+6670500Y+5939420D02*
X+6670500Y+5863220D01*
X+6654625Y+5847980D01*
X+6591125Y+5847980D01*
X+6575250Y+5863220D01*
X+6575250Y+5939420D01*
X+6511750Y+5908940D02*
X+6480000Y+5939420D01*
X+6480000Y+5847980D01*
X+6416500Y+5863220D02*
X+6416500Y+5924180D01*
X+6400625Y+5939420D01*
X+6337125Y+5939420D01*
X+6321250Y+5924180D01*
X+6321250Y+5863220D01*
X+6337125Y+5847980D01*
X+6400625Y+5847980D01*
X+6416500Y+5863220D01*
X+6416500Y+5847980D02*
X+6321250Y+5939420D01*
D22*
X+5875000Y+5340000D02*
X+5874957Y+5341039D01*
X+5874605Y+5343118D01*
X+5873868Y+5345197D01*
X+5872664Y+5347276D01*
X+5870823Y+5349326D01*
X+5868744Y+5350829D01*
X+5866665Y+5351786D01*
X+5864586Y+5352325D01*
X+5862507Y+5352500D01*
X+5862500Y+5352500D01*
X+5850000Y+5340000D02*
X+5850043Y+5341039D01*
X+5850395Y+5343118D01*
X+5851132Y+5345197D01*
X+5852336Y+5347276D01*
X+5854177Y+5349326D01*
X+5856256Y+5350829D01*
X+5858335Y+5351786D01*
X+5860414Y+5352325D01*
X+5862493Y+5352500D01*
X+5862500Y+5352500D01*
X+5850000Y+5340000D02*
X+5850043Y+5338961D01*
X+5850395Y+5336882D01*
X+5851132Y+5334803D01*
X+5852336Y+5332724D01*
X+5854177Y+5330674D01*
X+5856256Y+5329171D01*
X+5858335Y+5328214D01*
X+5860414Y+5327675D01*
X+5862493Y+5327500D01*
X+5862500Y+5327500D01*
X+5875000Y+5340000D02*
X+5874957Y+5338961D01*
X+5874605Y+5336882D01*
X+5873868Y+5334803D01*
X+5872664Y+5332724D01*
X+5870823Y+5330674D01*
X+5868744Y+5329171D01*
X+5866665Y+5328214D01*
X+5864586Y+5327675D01*
X+5862507Y+5327500D01*
X+5862500Y+5327500D01*
D23*
X+5532500Y+5500000D02*
X+5532500Y+5720000D01*
X+5842500Y+5720000D01*
X+5842500Y+5500000D01*
X+5532500Y+5500000D01*
D24*
X+5832500Y+5500000D02*
X+5842500Y+5510000D01*
X+5822500Y+5500000D02*
X+5842500Y+5520000D01*
X+5812500Y+5500000D02*
X+5842500Y+5530000D01*
X+5802500Y+5500000D02*
X+5842500Y+5540000D01*
X+5792500Y+5500000D02*
X+5842500Y+5550000D01*
X+5782500Y+5500000D02*
X+5842500Y+5560000D01*
X+5772500Y+5500000D02*
X+5842500Y+5570000D01*
X+5762500Y+5500000D02*
X+5842500Y+5580000D01*
X+5752500Y+5500000D02*
X+5842500Y+5590000D01*
D21*
X+5917980Y+5800500D02*
X+5994180Y+5800500D01*
X+6009420Y+5784625D01*
X+6009420Y+5721125D01*
X+5994180Y+5705250D01*
X+5917980Y+5705250D01*
X+5948460Y+5641750D02*
X+5917980Y+5610000D01*
X+6009420Y+5610000D01*
X+5948460Y+5514750D02*
X+5917980Y+5483000D01*
X+6009420Y+5483000D01*
D22*
X+1742500Y+5780000D02*
X+1742457Y+5781039D01*
X+1742105Y+5783118D01*
X+1741368Y+5785197D01*
X+1740164Y+5787276D01*
X+1738323Y+5789326D01*
X+1736244Y+5790829D01*
X+1734165Y+5791786D01*
X+1732086Y+5792325D01*
X+1730007Y+5792500D01*
X+1730000Y+5792500D01*
X+1717500Y+5780000D02*
X+1717543Y+5781039D01*
X+1717895Y+5783118D01*
X+1718632Y+5785197D01*
X+1719836Y+5787276D01*
X+1721677Y+5789326D01*
X+1723756Y+5790829D01*
X+1725835Y+5791786D01*
X+1727914Y+5792325D01*
X+1729993Y+5792500D01*
X+1730000Y+5792500D01*
X+1717500Y+5780000D02*
X+1717543Y+5778961D01*
X+1717895Y+5776882D01*
X+1718632Y+5774803D01*
X+1719836Y+5772724D01*
X+1721677Y+5770674D01*
X+1723756Y+5769171D01*
X+1725835Y+5768214D01*
X+1727914Y+5767675D01*
X+1729993Y+5767500D01*
X+1730000Y+5767500D01*
X+1742500Y+5780000D02*
X+1742457Y+5778961D01*
X+1742105Y+5776882D01*
X+1741368Y+5774803D01*
X+1740164Y+5772724D01*
X+1738323Y+5770674D01*
X+1736244Y+5769171D01*
X+1734165Y+5768214D01*
X+1732086Y+5767675D01*
X+1730007Y+5767500D01*
X+1730000Y+5767500D01*
D23*
X+1610000Y+5450000D02*
X+1520000Y+5450000D01*
X+1520000Y+5750000D01*
X+1610000Y+5750000D01*
X+1610000Y+5450000D01*
D21*
X+1755500Y+5926920D02*
X+1755500Y+5850720D01*
X+1739625Y+5835480D01*
X+1676125Y+5835480D01*
X+1660250Y+5850720D01*
X+1660250Y+5926920D01*
X+1596750Y+5896440D02*
X+1565000Y+5926920D01*
X+1565000Y+5835480D01*
X+1485625Y+5911680D02*
X+1469750Y+5926920D01*
X+1422125Y+5926920D01*
X+1406250Y+5911680D01*
X+1406250Y+5896440D01*
X+1422125Y+5881200D01*
X+1469750Y+5881200D01*
X+1485625Y+5865960D01*
X+1485625Y+5835480D01*
X+1406250Y+5835480D01*
D22*
X+6112500Y+3292500D02*
X+6112457Y+3293539D01*
X+6112105Y+3295618D01*
X+6111368Y+3297697D01*
X+6110164Y+3299776D01*
X+6108323Y+3301826D01*
X+6106244Y+3303329D01*
X+6104165Y+3304286D01*
X+6102086Y+3304825D01*
X+6100007Y+3305000D01*
X+6100000Y+3305000D01*
X+6087500Y+3292500D02*
X+6087543Y+3293539D01*
X+6087895Y+3295618D01*
X+6088632Y+3297697D01*
X+6089836Y+3299776D01*
X+6091677Y+3301826D01*
X+6093756Y+3303329D01*
X+6095835Y+3304286D01*
X+6097914Y+3304825D01*
X+6099993Y+3305000D01*
X+6100000Y+3305000D01*
X+6087500Y+3292500D02*
X+6087543Y+3291461D01*
X+6087895Y+3289382D01*
X+6088632Y+3287303D01*
X+6089836Y+3285224D01*
X+6091677Y+3283174D01*
X+6093756Y+3281671D01*
X+6095835Y+3280714D01*
X+6097914Y+3280175D01*
X+6099993Y+3280000D01*
X+6100000Y+3280000D01*
X+6112500Y+3292500D02*
X+6112457Y+3291461D01*
X+6112105Y+3289382D01*
X+6111368Y+3287303D01*
X+6110164Y+3285224D01*
X+6108323Y+3283174D01*
X+6106244Y+3281671D01*
X+6104165Y+3280714D01*
X+6102086Y+3280175D01*
X+6100007Y+3280000D01*
X+6100000Y+3280000D01*
D23*
X+5940000Y+2962500D02*
X+5720000Y+2962500D01*
X+5720000Y+3272500D01*
X+5940000Y+3272500D01*
X+5940000Y+2962500D01*
D24*
X+5940000Y+3262500D02*
X+5930000Y+3272500D01*
X+5940000Y+3252500D02*
X+5920000Y+3272500D01*
X+5940000Y+3242500D02*
X+5910000Y+3272500D01*
X+5940000Y+3232500D02*
X+5900000Y+3272500D01*
X+5940000Y+3222500D02*
X+5890000Y+3272500D01*
X+5940000Y+3212500D02*
X+5880000Y+3272500D01*
X+5940000Y+3202500D02*
X+5870000Y+3272500D01*
X+5940000Y+3192500D02*
X+5860000Y+3272500D01*
X+5940000Y+3182500D02*
X+5850000Y+3272500D01*
D21*
X+6020500Y+3439420D02*
X+6020500Y+3363220D01*
X+6004625Y+3347980D01*
X+5941125Y+3347980D01*
X+5925250Y+3363220D01*
X+5925250Y+3439420D01*
X+5861750Y+3408940D02*
X+5830000Y+3439420D01*
X+5830000Y+3347980D01*
X+5750625Y+3424180D02*
X+5734750Y+3439420D01*
X+5687125Y+3439420D01*
X+5671250Y+3424180D01*
X+5671250Y+3408940D01*
X+5687125Y+3393700D01*
X+5671250Y+3378460D01*
X+5671250Y+3363220D01*
X+5687125Y+3347980D01*
X+5734750Y+3347980D01*
X+5750625Y+3363220D01*
X+5718875Y+3393700D02*
X+5687125Y+3393700D01*
D23*
X+1755000Y+4955000D02*
X+1645000Y+4955000D01*
X+1755000Y+5225000D02*
X+1645000Y+5225000D01*
D21*
X+1731750Y+5280720D02*
X+1747625Y+5265480D01*
X+1795250Y+5265480D01*
X+1827000Y+5295960D01*
X+1827000Y+5326440D01*
X+1795250Y+5356920D01*
X+1747625Y+5356920D01*
X+1731750Y+5341680D01*
X+1668250Y+5326440D02*
X+1636500Y+5356920D01*
X+1636500Y+5265480D01*
D23*
X+1765000Y+4315000D02*
X+1655000Y+4315000D01*
X+1765000Y+4585000D02*
X+1655000Y+4585000D01*
D21*
X+1741750Y+4640720D02*
X+1757625Y+4625480D01*
X+1805250Y+4625480D01*
X+1837000Y+4655960D01*
X+1837000Y+4686440D01*
X+1805250Y+4716920D01*
X+1757625Y+4716920D01*
X+1741750Y+4701680D01*
X+1694125Y+4701680D02*
X+1678250Y+4716920D01*
X+1630625Y+4716920D01*
X+1614750Y+4701680D01*
X+1614750Y+4686440D01*
X+1630625Y+4671200D01*
X+1678250Y+4671200D01*
X+1694125Y+4655960D01*
X+1694125Y+4625480D01*
X+1614750Y+4625480D01*
D23*
X+1760000Y+4035000D02*
X+1760000Y+3905000D01*
D21*
X+1791750Y+4090720D02*
X+1807625Y+4075480D01*
X+1855250Y+4075480D01*
X+1887000Y+4105960D01*
X+1887000Y+4136440D01*
X+1855250Y+4166920D01*
X+1807625Y+4166920D01*
X+1791750Y+4151680D01*
X+1744125Y+4151680D02*
X+1728250Y+4166920D01*
X+1680625Y+4166920D01*
X+1664750Y+4151680D01*
X+1664750Y+4136440D01*
X+1680625Y+4121200D01*
X+1664750Y+4105960D01*
X+1664750Y+4090720D01*
X+1680625Y+4075480D01*
X+1728250Y+4075480D01*
X+1744125Y+4090720D01*
X+1712375Y+4121200D02*
X+1680625Y+4121200D01*
D23*
X+3340000Y+2335000D02*
X+3340000Y+2205000D01*
D21*
X+3371750Y+2390720D02*
X+3387625Y+2375480D01*
X+3435250Y+2375480D01*
X+3467000Y+2405960D01*
X+3467000Y+2436440D01*
X+3435250Y+2466920D01*
X+3387625Y+2466920D01*
X+3371750Y+2451680D01*
X+3244750Y+2405960D02*
X+3340000Y+2405960D01*
X+3276500Y+2466920D01*
X+3276500Y+2375480D01*
D23*
X+3405000Y+1665000D02*
X+3295000Y+1665000D01*
X+3405000Y+1935000D02*
X+3295000Y+1935000D01*
D21*
X+3381750Y+1990720D02*
X+3397625Y+1975480D01*
X+3445250Y+1975480D01*
X+3477000Y+2005960D01*
X+3477000Y+2036440D01*
X+3445250Y+2066920D01*
X+3397625Y+2066920D01*
X+3381750Y+2051680D01*
X+3254750Y+2066920D02*
X+3334125Y+2066920D01*
X+3334125Y+2036440D01*
X+3270625Y+2036440D01*
X+3254750Y+2021200D01*
X+3254750Y+1990720D01*
X+3270625Y+1975480D01*
X+3318250Y+1975480D01*
X+3334125Y+1990720D01*
D23*
X+3365000Y+1135000D02*
X+3255000Y+1135000D01*
X+3365000Y+1405000D02*
X+3255000Y+1405000D01*
D21*
X+3341750Y+1460720D02*
X+3357625Y+1445480D01*
X+3405250Y+1445480D01*
X+3437000Y+1475960D01*
X+3437000Y+1506440D01*
X+3405250Y+1536920D01*
X+3357625Y+1536920D01*
X+3341750Y+1521680D01*
X+3214750Y+1521680D02*
X+3230625Y+1536920D01*
X+3278250Y+1536920D01*
X+3294125Y+1521680D01*
X+3294125Y+1460720D01*
X+3278250Y+1445480D01*
X+3230625Y+1445480D01*
X+3214750Y+1460720D01*
X+3214750Y+1475960D01*
X+3230625Y+1491200D01*
X+3294125Y+1491200D01*
D23*
X+3345000Y+605000D02*
X+3235000Y+605000D01*
X+3345000Y+875000D02*
X+3235000Y+875000D01*
D21*
X+3321750Y+930720D02*
X+3337625Y+915480D01*
X+3385250Y+915480D01*
X+3417000Y+945960D01*
X+3417000Y+976440D01*
X+3385250Y+1006920D01*
X+3337625Y+1006920D01*
X+3321750Y+991680D01*
X+3274125Y+1006920D02*
X+3194750Y+1006920D01*
X+3194750Y+991680D01*
X+3274125Y+915480D01*
D23*
X+4160000Y+2475000D02*
X+4160000Y+2345000D01*
D21*
X+4191750Y+2530720D02*
X+4207625Y+2515480D01*
X+4255250Y+2515480D01*
X+4287000Y+2545960D01*
X+4287000Y+2576440D01*
X+4255250Y+2606920D01*
X+4207625Y+2606920D01*
X+4191750Y+2591680D01*
X+4128250Y+2561200D02*
X+4144125Y+2576440D01*
X+4144125Y+2591680D01*
X+4128250Y+2606920D01*
X+4080625Y+2606920D01*
X+4064750Y+2591680D01*
X+4064750Y+2576440D01*
X+4080625Y+2561200D01*
X+4128250Y+2561200D01*
X+4144125Y+2545960D01*
X+4144125Y+2530720D01*
X+4128250Y+2515480D01*
X+4080625Y+2515480D01*
X+4064750Y+2530720D01*
X+4064750Y+2545960D01*
X+4080625Y+2561200D01*
D23*
X+4580000Y+2475000D02*
X+4580000Y+2345000D01*
D21*
X+4611750Y+2530720D02*
X+4627625Y+2515480D01*
X+4675250Y+2515480D01*
X+4707000Y+2545960D01*
X+4707000Y+2576440D01*
X+4675250Y+2606920D01*
X+4627625Y+2606920D01*
X+4611750Y+2591680D01*
X+4484750Y+2576440D02*
X+4500625Y+2561200D01*
X+4548250Y+2561200D01*
X+4564125Y+2576440D01*
X+4564125Y+2591680D01*
X+4548250Y+2606920D01*
X+4500625Y+2606920D01*
X+4484750Y+2591680D01*
X+4484750Y+2530720D01*
X+4500625Y+2515480D01*
X+4548250Y+2515480D01*
D23*
X+1860000Y+3225000D02*
X+1860000Y+3095000D01*
D21*
X+1955250Y+3280720D02*
X+1971125Y+3265480D01*
X+2018750Y+3265480D01*
X+2050500Y+3295960D01*
X+2050500Y+3326440D01*
X+2018750Y+3356920D01*
X+1971125Y+3356920D01*
X+1955250Y+3341680D01*
X+1891750Y+3326440D02*
X+1860000Y+3356920D01*
X+1860000Y+3265480D01*
X+1796500Y+3280720D02*
X+1796500Y+3341680D01*
X+1780625Y+3356920D01*
X+1717125Y+3356920D01*
X+1701250Y+3341680D01*
X+1701250Y+3280720D01*
X+1717125Y+3265480D01*
X+1780625Y+3265480D01*
X+1796500Y+3280720D01*
X+1796500Y+3265480D02*
X+1701250Y+3356920D01*
D23*
X+1850000Y+2785000D02*
X+1850000Y+2655000D01*
D21*
X+1945250Y+2840720D02*
X+1961125Y+2825480D01*
X+2008750Y+2825480D01*
X+2040500Y+2855960D01*
X+2040500Y+2886440D01*
X+2008750Y+2916920D01*
X+1961125Y+2916920D01*
X+1945250Y+2901680D01*
X+1881750Y+2886440D02*
X+1850000Y+2916920D01*
X+1850000Y+2825480D01*
X+1754750Y+2886440D02*
X+1723000Y+2916920D01*
X+1723000Y+2825480D01*
D23*
X+1870000Y+2375000D02*
X+1870000Y+2245000D01*
D21*
X+1965250Y+2430720D02*
X+1981125Y+2415480D01*
X+2028750Y+2415480D01*
X+2060500Y+2445960D01*
X+2060500Y+2476440D01*
X+2028750Y+2506920D01*
X+1981125Y+2506920D01*
X+1965250Y+2491680D01*
X+1901750Y+2476440D02*
X+1870000Y+2506920D01*
X+1870000Y+2415480D01*
X+1790625Y+2491680D02*
X+1774750Y+2506920D01*
X+1727125Y+2506920D01*
X+1711250Y+2491680D01*
X+1711250Y+2476440D01*
X+1727125Y+2461200D01*
X+1774750Y+2461200D01*
X+1790625Y+2445960D01*
X+1790625Y+2415480D01*
X+1711250Y+2415480D01*
D23*
X+1870000Y+1975000D02*
X+1870000Y+1845000D01*
D21*
X+1965250Y+2030720D02*
X+1981125Y+2015480D01*
X+2028750Y+2015480D01*
X+2060500Y+2045960D01*
X+2060500Y+2076440D01*
X+2028750Y+2106920D01*
X+1981125Y+2106920D01*
X+1965250Y+2091680D01*
X+1901750Y+2076440D02*
X+1870000Y+2106920D01*
X+1870000Y+2015480D01*
X+1790625Y+2091680D02*
X+1774750Y+2106920D01*
X+1727125Y+2106920D01*
X+1711250Y+2091680D01*
X+1711250Y+2076440D01*
X+1727125Y+2061200D01*
X+1711250Y+2045960D01*
X+1711250Y+2030720D01*
X+1727125Y+2015480D01*
X+1774750Y+2015480D01*
X+1790625Y+2030720D01*
X+1758875Y+2061200D02*
X+1727125Y+2061200D01*
D23*
X+3370000Y+2655000D02*
X+3370000Y+2525000D01*
D21*
X+3465250Y+2710720D02*
X+3481125Y+2695480D01*
X+3528750Y+2695480D01*
X+3560500Y+2725960D01*
X+3560500Y+2756440D01*
X+3528750Y+2786920D01*
X+3481125Y+2786920D01*
X+3465250Y+2771680D01*
X+3401750Y+2756440D02*
X+3370000Y+2786920D01*
X+3370000Y+2695480D01*
X+3211250Y+2725960D02*
X+3306500Y+2725960D01*
X+3243000Y+2786920D01*
X+3243000Y+2695480D01*
D23*
X+5190000Y+2465000D02*
X+5190000Y+2335000D01*
D21*
X+5285250Y+2520720D02*
X+5301125Y+2505480D01*
X+5348750Y+2505480D01*
X+5380500Y+2535960D01*
X+5380500Y+2566440D01*
X+5348750Y+2596920D01*
X+5301125Y+2596920D01*
X+5285250Y+2581680D01*
X+5221750Y+2566440D02*
X+5190000Y+2596920D01*
X+5190000Y+2505480D01*
X+5031250Y+2596920D02*
X+5110625Y+2596920D01*
X+5110625Y+2566440D01*
X+5047125Y+2566440D01*
X+5031250Y+2551200D01*
X+5031250Y+2520720D01*
X+5047125Y+2505480D01*
X+5094750Y+2505480D01*
X+5110625Y+2520720D01*
D23*
X+1860000Y+1615000D02*
X+1860000Y+1485000D01*
D21*
X+1955250Y+1670720D02*
X+1971125Y+1655480D01*
X+2018750Y+1655480D01*
X+2050500Y+1685960D01*
X+2050500Y+1716440D01*
X+2018750Y+1746920D01*
X+1971125Y+1746920D01*
X+1955250Y+1731680D01*
X+1891750Y+1716440D02*
X+1860000Y+1746920D01*
X+1860000Y+1655480D01*
X+1701250Y+1731680D02*
X+1717125Y+1746920D01*
X+1764750Y+1746920D01*
X+1780625Y+1731680D01*
X+1780625Y+1670720D01*
X+1764750Y+1655480D01*
X+1717125Y+1655480D01*
X+1701250Y+1670720D01*
X+1701250Y+1685960D01*
X+1717125Y+1701200D01*
X+1780625Y+1701200D01*
D23*
X+5640000Y+2475000D02*
X+5640000Y+2345000D01*
D21*
X+5735250Y+2530720D02*
X+5751125Y+2515480D01*
X+5798750Y+2515480D01*
X+5830500Y+2545960D01*
X+5830500Y+2576440D01*
X+5798750Y+2606920D01*
X+5751125Y+2606920D01*
X+5735250Y+2591680D01*
X+5671750Y+2576440D02*
X+5640000Y+2606920D01*
X+5640000Y+2515480D01*
X+5560625Y+2606920D02*
X+5481250Y+2606920D01*
X+5481250Y+2591680D01*
X+5560625Y+2515480D01*
M02*
