G04 PROTEUS GERBER X2 FILE*
%TF.GenerationSoftware,Labcenter,Proteus,8.12-SP2-Build31155*%
%TF.CreationDate,2021-12-06T20:36:36+00:00*%
%TF.FileFunction,Copper,L2,Bot*%
%TF.FilePolarity,Positive*%
%TF.Part,Single*%
%TF.SameCoordinates,{41aeb68f-70a9-4567-b6d7-def337a2806a}*%
%FSLAX45Y45*%
%MOMM*%
G01*
%TA.AperFunction,Conductor*%
%ADD10C,0.203200*%
%ADD11C,0.381000*%
%ADD12C,0.304800*%
%TA.AperFunction,ComponentPad*%
%ADD14C,1.524000*%
%TA.AperFunction,ComponentPad*%
%ADD13R,1.270000X1.270000*%
%ADD15C,1.270000*%
%TA.AperFunction,ComponentPad*%
%ADD16R,2.032000X2.032000*%
%TA.AperFunction,SMDPad,CuDef*%
%ADD18R,1.447800X0.457200*%
%ADD19R,0.457200X1.447800*%
%TA.AperFunction,SMDPad,CuDef*%
%ADD70R,1.041400X0.558800*%
%TA.AperFunction,SMDPad,CuDef*%
%ADD71R,1.143000X2.692400*%
%ADD20R,1.143000X1.447800*%
%TA.AperFunction,Profile*%
%ADD17C,0.203200*%
%TD.AperFunction*%
D10*
X+5332459Y+1711604D02*
X+4916067Y+1711604D01*
X+4726376Y+1901295D01*
X+4359521Y+1901295D01*
X+4198816Y+2062000D01*
X+4074000Y+2062000D01*
X+5332459Y+1711604D02*
X+5226048Y+1605193D01*
X+5226048Y+1601600D01*
X+5242000Y+1500000D01*
X+2950000Y+2380000D02*
X+3204000Y+2126000D01*
X+3712000Y+2126000D01*
D11*
X+3712000Y+2380000D02*
X+3828817Y+2263183D01*
X+3828817Y+397652D01*
X+3925975Y+300494D01*
X+4950494Y+300494D01*
X+5000000Y+350000D01*
X+1100000Y+350000D02*
X+1100000Y+900000D01*
X+641000Y+3098000D02*
X+800305Y+2938695D01*
X+800305Y+2887056D01*
X+800305Y+1199695D01*
X+1100000Y+900000D01*
D10*
X+5254000Y+350000D02*
X+5254000Y+154843D01*
X+5344153Y+64690D01*
X+6809538Y+64690D01*
X+6930000Y+185152D01*
X+6930000Y+4433000D01*
X+6737000Y+4626000D01*
X+5242000Y+750000D02*
X+5242000Y+606732D01*
X+5315898Y+532834D01*
X+6100539Y+532834D01*
X+6205984Y+427389D01*
X+6863468Y+427389D01*
X+6863468Y+1197532D01*
X+6737000Y+1324000D01*
X+5852000Y+2062000D02*
X+5852000Y+2573767D01*
X+5878378Y+2600145D01*
X+6349855Y+2600145D01*
X+6356000Y+2594000D01*
X+5750000Y+1500000D02*
X+5750000Y+1585538D01*
X+5750000Y+1960000D01*
X+5852000Y+2062000D01*
X+5750000Y+1585538D02*
X+5623934Y+1711604D01*
X+5332459Y+1711604D01*
X+5496000Y+750000D02*
X+5496000Y+736796D01*
X+5634486Y+598310D01*
X+6169878Y+598310D01*
X+6250809Y+679241D01*
X+6605662Y+679241D01*
X+6605662Y+2970662D01*
X+6737000Y+3102000D01*
X+5750000Y+1500000D02*
X+5750000Y+1100000D01*
X+5904000Y+4650000D02*
X+6020305Y+4766305D01*
X+6499998Y+4766305D01*
X+6523343Y+4742960D01*
X+6523343Y+1745343D01*
X+6356000Y+1578000D01*
D11*
X+1800000Y+900000D02*
X+1921579Y+1021579D01*
D12*
X+1932421Y+1032421D01*
D11*
X+2031590Y+1131590D01*
X+2231590Y+1131590D01*
X+2350000Y+1250000D01*
X+2350000Y+1417378D01*
X+2362243Y+1429621D01*
X+2362243Y+3315805D01*
X+2459323Y+3412885D01*
X+5412885Y+3412885D01*
X+5650000Y+3650000D01*
D10*
X+2150000Y+220000D02*
X+2303086Y+66914D01*
X+2456962Y+66914D01*
X+2607481Y+66914D01*
X+2950000Y+409433D01*
X+2950000Y+602000D01*
X+1710000Y+350000D02*
X+2008155Y+350000D01*
X+2073155Y+415000D01*
X+2150000Y+415000D01*
X+6250000Y+3020000D02*
X+6034793Y+3020000D01*
X+6023459Y+3031334D01*
X+6050000Y+3020000D01*
X+6349855Y+2600145D02*
X+6250000Y+2700000D01*
X+6250000Y+3020000D01*
X+6250000Y+3758000D01*
X+6356000Y+3864000D01*
X+5610000Y+3150000D02*
X+5914257Y+3150000D01*
X+5979257Y+3215000D01*
X+6050000Y+3215000D01*
X+4582000Y+2062000D02*
X+5212331Y+2692331D01*
X+5212331Y+2845275D01*
X+5517056Y+3150000D01*
X+5610000Y+3150000D01*
X+5785000Y+5390000D02*
X+5785000Y+5694992D01*
X+5717882Y+5762110D01*
X+5717882Y+5838407D01*
X+5720000Y+5830000D01*
X+6260000Y+5650000D02*
X+6563018Y+5650000D01*
X+6628018Y+5715000D01*
X+6700000Y+5715000D01*
D11*
X+5785000Y+5830000D02*
X+6145000Y+5830000D01*
X+6260000Y+5715000D01*
D10*
X+260000Y+5650000D02*
X+563938Y+5650000D01*
X+628938Y+5715000D01*
X+700000Y+5715000D01*
D11*
X+260000Y+5715000D02*
X+361631Y+5816631D01*
X+459889Y+5816631D01*
X+1308369Y+5816631D01*
X+1430000Y+5695000D01*
X+1341134Y+5606134D01*
X+1341134Y+4951453D01*
X+1150000Y+4760319D01*
X+1150000Y+4750000D01*
D10*
X+6260000Y+5520000D02*
X+6377059Y+5402941D01*
X+6424190Y+5402941D01*
X+6607881Y+5219250D01*
X+6607881Y+4677679D01*
X+6607881Y+4509824D01*
X+6669505Y+4448200D01*
X+6737000Y+4372000D01*
X+3160000Y+3050000D02*
X+3454470Y+3050000D01*
X+3519470Y+3115000D01*
X+3600000Y+3115000D01*
X+260000Y+558000D02*
X+143572Y+441572D01*
X+143572Y+151572D01*
X+235144Y+60000D01*
X+1770000Y+60000D01*
X+1984913Y+274913D01*
X+2077610Y+274913D01*
X+2150000Y+285000D01*
X+260000Y+304000D02*
X+260000Y+152437D01*
X+302437Y+110000D01*
X+1600000Y+110000D01*
X+1710000Y+220000D01*
X+2150000Y+415000D02*
X+2150000Y+606059D01*
X+2030025Y+726034D01*
X+1731318Y+726034D01*
X+1610000Y+847352D01*
X+1610000Y+1080000D01*
X+1775580Y+1245580D01*
X+2046060Y+1245580D01*
X+2046060Y+2272060D01*
X+2262000Y+2488000D01*
X+1500000Y+2742000D02*
X+1404111Y+2837889D01*
X+1346920Y+2837889D01*
X+1346920Y+3270843D01*
X+1144874Y+3472889D01*
X+1072716Y+3472889D01*
X+885102Y+3660503D01*
X+885102Y+5161945D01*
X+851784Y+5195263D01*
X+851784Y+5632849D01*
X+763411Y+5721222D01*
X+733479Y+5721222D01*
X+700000Y+5715000D01*
X+3600000Y+2920000D02*
X+4216549Y+2920000D01*
X+4264500Y+2872049D01*
X+4328000Y+2824000D01*
D14*
X+641000Y+4876000D03*
X+260000Y+4622000D03*
X+641000Y+4622000D03*
X+260000Y+4368000D03*
X+641000Y+4368000D03*
X+260000Y+4114000D03*
X+641000Y+4114000D03*
X+260000Y+3860000D03*
X+641000Y+3860000D03*
X+260000Y+3606000D03*
X+641000Y+3606000D03*
X+260000Y+3352000D03*
X+641000Y+3352000D03*
X+260000Y+3098000D03*
X+641000Y+3098000D03*
X+260000Y+2844000D03*
X+641000Y+2844000D03*
X+260000Y+2590000D03*
X+641000Y+2590000D03*
X+260000Y+2336000D03*
X+641000Y+2336000D03*
X+260000Y+2082000D03*
X+641000Y+2082000D03*
X+260000Y+1828000D03*
X+641000Y+1828000D03*
X+260000Y+1574000D03*
X+641000Y+1574000D03*
X+260000Y+1320000D03*
X+641000Y+1320000D03*
X+260000Y+1066000D03*
X+641000Y+1066000D03*
X+260000Y+812000D03*
X+641000Y+812000D03*
X+260000Y+558000D03*
X+641000Y+558000D03*
X+260000Y+304000D03*
X+641000Y+304000D03*
X+6737000Y+4880000D03*
X+6356000Y+4626000D03*
X+6737000Y+4626000D03*
X+6356000Y+4372000D03*
X+6737000Y+4372000D03*
X+6356000Y+4118000D03*
X+6737000Y+4118000D03*
X+6356000Y+3864000D03*
X+6737000Y+3864000D03*
X+6356000Y+3610000D03*
X+6737000Y+3610000D03*
X+6356000Y+3356000D03*
X+6737000Y+3356000D03*
X+6356000Y+3102000D03*
X+6737000Y+3102000D03*
X+6356000Y+2848000D03*
X+6737000Y+2848000D03*
X+6356000Y+2594000D03*
X+6737000Y+2594000D03*
X+6356000Y+2340000D03*
X+6737000Y+2340000D03*
X+6356000Y+2086000D03*
X+6737000Y+2086000D03*
X+6356000Y+1832000D03*
X+6737000Y+1832000D03*
X+6356000Y+1578000D03*
X+6737000Y+1578000D03*
X+6356000Y+1324000D03*
X+6737000Y+1324000D03*
X+6356000Y+1070000D03*
X+6737000Y+1070000D03*
X+6356000Y+816000D03*
X+6737000Y+816000D03*
X+6356000Y+562000D03*
X+6737000Y+562000D03*
X+6356000Y+308000D03*
X+6737000Y+308000D03*
D13*
X+1500000Y+3250000D03*
D15*
X+1500000Y+2996000D03*
X+1500000Y+2742000D03*
X+1500000Y+2488000D03*
X+1500000Y+2234000D03*
X+1500000Y+1980000D03*
X+1500000Y+1726000D03*
X+1500000Y+1472000D03*
X+2262000Y+1472000D03*
X+2262000Y+1726000D03*
X+2262000Y+1980000D03*
X+2262000Y+2234000D03*
X+2262000Y+2488000D03*
X+2262000Y+2742000D03*
X+2262000Y+2996000D03*
X+2262000Y+3250000D03*
D13*
X+2950000Y+2380000D03*
D15*
X+2950000Y+2126000D03*
X+2950000Y+1872000D03*
X+2950000Y+1618000D03*
X+2950000Y+1364000D03*
X+2950000Y+1110000D03*
X+2950000Y+856000D03*
X+2950000Y+602000D03*
X+3712000Y+602000D03*
X+3712000Y+856000D03*
X+3712000Y+1110000D03*
X+3712000Y+1364000D03*
X+3712000Y+1618000D03*
X+3712000Y+1872000D03*
X+3712000Y+2126000D03*
X+3712000Y+2380000D03*
D16*
X+5750000Y+1500000D03*
X+5496000Y+1500000D03*
X+5242000Y+1500000D03*
X+4988000Y+1500000D03*
X+5230000Y+5500000D03*
X+5230000Y+5246000D03*
X+5230000Y+4992000D03*
X+5230000Y+4738000D03*
X+5230000Y+4484000D03*
X+5230000Y+4230000D03*
X+5230000Y+3976000D03*
X+5750000Y+750000D03*
X+5496000Y+750000D03*
X+5242000Y+750000D03*
X+4988000Y+750000D03*
X+5750000Y+1100000D03*
X+5496000Y+1100000D03*
X+5242000Y+1100000D03*
X+4988000Y+1100000D03*
X+4050000Y+3250000D03*
X+4304000Y+3250000D03*
X+4558000Y+3250000D03*
X+4812000Y+3250000D03*
X+5066000Y+3250000D03*
X+5320000Y+3250000D03*
X+4550000Y+1750000D03*
X+4550000Y+1496000D03*
X+4550000Y+1242000D03*
X+4550000Y+988000D03*
X+4550000Y+734000D03*
X+4550000Y+480000D03*
X+2600000Y+3150000D03*
X+2600000Y+2896000D03*
X+2600000Y+2642000D03*
X+2600000Y+2388000D03*
X+2600000Y+2134000D03*
X+2600000Y+1880000D03*
X+1100000Y+2750000D03*
X+1100000Y+2496000D03*
X+1100000Y+2242000D03*
X+1100000Y+1988000D03*
X+1100000Y+1734000D03*
X+1100000Y+1480000D03*
X+4100000Y+1750000D03*
X+4100000Y+1496000D03*
X+4100000Y+1242000D03*
X+4100000Y+988000D03*
X+4100000Y+734000D03*
X+4100000Y+480000D03*
X+2550000Y+1530000D03*
X+2550000Y+1276000D03*
X+2550000Y+1022000D03*
X+2550000Y+768000D03*
X+2550000Y+514000D03*
X+2550000Y+260000D03*
X+3150000Y+100000D03*
X+3404000Y+100000D03*
X+5000000Y+350000D03*
X+5254000Y+350000D03*
X+5508000Y+350000D03*
X+5762000Y+350000D03*
D13*
X+4074000Y+2062000D03*
D15*
X+4328000Y+2062000D03*
X+4582000Y+2062000D03*
X+4836000Y+2062000D03*
X+5090000Y+2062000D03*
X+5344000Y+2062000D03*
X+5598000Y+2062000D03*
X+5852000Y+2062000D03*
X+5852000Y+2824000D03*
X+5598000Y+2824000D03*
X+5344000Y+2824000D03*
X+5090000Y+2824000D03*
X+4836000Y+2824000D03*
X+4582000Y+2824000D03*
X+4328000Y+2824000D03*
X+4074000Y+2824000D03*
D16*
X+1150000Y+3650000D03*
X+1404000Y+3650000D03*
X+1150000Y+4150000D03*
X+1404000Y+4150000D03*
X+1150000Y+4750000D03*
X+1404000Y+4750000D03*
X+1100000Y+900000D03*
X+1354000Y+900000D03*
X+1100000Y+350000D03*
X+1354000Y+350000D03*
X+1800000Y+900000D03*
X+2054000Y+900000D03*
X+5650000Y+4650000D03*
X+5904000Y+4650000D03*
X+5650000Y+4150000D03*
X+5904000Y+4150000D03*
X+5650000Y+3650000D03*
X+5904000Y+3650000D03*
D18*
X+2150000Y+415000D03*
X+2150000Y+350000D03*
X+2150000Y+285000D03*
X+2150000Y+220000D03*
X+1710000Y+220000D03*
X+1710000Y+285000D03*
X+1710000Y+350000D03*
X+1710000Y+415000D03*
X+3600000Y+3115000D03*
X+3600000Y+3050000D03*
X+3600000Y+2985000D03*
X+3600000Y+2920000D03*
X+3160000Y+2920000D03*
X+3160000Y+2985000D03*
X+3160000Y+3050000D03*
X+3160000Y+3115000D03*
X+700000Y+5715000D03*
X+700000Y+5650000D03*
X+700000Y+5585000D03*
X+700000Y+5520000D03*
X+260000Y+5520000D03*
X+260000Y+5585000D03*
X+260000Y+5650000D03*
X+260000Y+5715000D03*
X+6700000Y+5715000D03*
X+6700000Y+5650000D03*
X+6700000Y+5585000D03*
X+6700000Y+5520000D03*
X+6260000Y+5520000D03*
X+6260000Y+5585000D03*
X+6260000Y+5650000D03*
X+6260000Y+5715000D03*
D19*
X+5785000Y+5390000D03*
X+5720000Y+5390000D03*
X+5655000Y+5390000D03*
X+5590000Y+5390000D03*
X+5590000Y+5830000D03*
X+5655000Y+5830000D03*
X+5720000Y+5830000D03*
X+5785000Y+5830000D03*
D70*
X+1700000Y+5695000D03*
X+1700000Y+5600000D03*
X+1700000Y+5505000D03*
X+1430000Y+5505000D03*
X+1430000Y+5695000D03*
D18*
X+6050000Y+3215000D03*
X+6050000Y+3150000D03*
X+6050000Y+3085000D03*
X+6050000Y+3020000D03*
X+5610000Y+3020000D03*
X+5610000Y+3085000D03*
X+5610000Y+3150000D03*
X+5610000Y+3215000D03*
D71*
X+1850000Y+5090000D03*
X+1550000Y+5090000D03*
X+1860000Y+4450000D03*
X+1560000Y+4450000D03*
D20*
X+1850000Y+3970000D03*
X+1670000Y+3970000D03*
X+3430000Y+2270000D03*
X+3250000Y+2270000D03*
D71*
X+3500000Y+1800000D03*
X+3200000Y+1800000D03*
X+3460000Y+1270000D03*
X+3160000Y+1270000D03*
X+3440000Y+740000D03*
X+3140000Y+740000D03*
D20*
X+4250000Y+2410000D03*
X+4070000Y+2410000D03*
X+4670000Y+2410000D03*
X+4490000Y+2410000D03*
X+1950000Y+3160000D03*
X+1770000Y+3160000D03*
X+1940000Y+2720000D03*
X+1760000Y+2720000D03*
X+1960000Y+2310000D03*
X+1780000Y+2310000D03*
X+1960000Y+1910000D03*
X+1780000Y+1910000D03*
X+3460000Y+2590000D03*
X+3280000Y+2590000D03*
X+5280000Y+2400000D03*
X+5100000Y+2400000D03*
X+1950000Y+1550000D03*
X+1770000Y+1550000D03*
X+5730000Y+2410000D03*
X+5550000Y+2410000D03*
D17*
X+0Y+0D02*
X+1650000Y+0D01*
X+7000000Y+0D02*
X+7000000Y+6000000D01*
X+5000000Y+6000000D01*
X+5000000Y+3700000D01*
X+4800000Y+3500000D01*
X+2200000Y+3500000D01*
X+2000000Y+3700000D02*
X+2000000Y+6000000D01*
X+0Y+6000000D01*
X+0Y+0D01*
X+2000000Y+3700000D02*
X+2200000Y+3500000D01*
X+5160000Y+0D02*
X+7000000Y+0D01*
X+1750000Y-200000D02*
X+5050000Y-200000D01*
X+1650000Y+0D02*
X+1750000Y-200000D01*
X+5160000Y+0D02*
X+5050000Y-200000D01*
X+4550045Y+50000D02*
X+4549508Y+63142D01*
X+4545144Y+89427D01*
X+4536029Y+115712D01*
X+4521182Y+141997D01*
X+4498470Y+168118D01*
X+4472185Y+187898D01*
X+4445900Y+200658D01*
X+4419615Y+208108D01*
X+4393330Y+210987D01*
X+4389000Y+211045D01*
X+4227955Y+50000D02*
X+4228492Y+63142D01*
X+4232856Y+89427D01*
X+4241971Y+115712D01*
X+4256818Y+141997D01*
X+4279530Y+168118D01*
X+4305815Y+187898D01*
X+4332100Y+200658D01*
X+4358385Y+208108D01*
X+4384670Y+210987D01*
X+4389000Y+211045D01*
X+4227955Y+50000D02*
X+4228492Y+36858D01*
X+4232856Y+10573D01*
X+4241971Y-15712D01*
X+4256818Y-41997D01*
X+4279530Y-68118D01*
X+4305815Y-87898D01*
X+4332100Y-100658D01*
X+4358385Y-108108D01*
X+4384670Y-110987D01*
X+4389000Y-111045D01*
X+4550045Y+50000D02*
X+4549508Y+36858D01*
X+4545144Y+10573D01*
X+4536029Y-15712D01*
X+4521182Y-41997D01*
X+4498470Y-68118D01*
X+4472185Y-87898D01*
X+4445900Y-100658D01*
X+4419615Y-108108D01*
X+4393330Y-110987D01*
X+4389000Y-111045D01*
X+6074045Y+5130000D02*
X+6073508Y+5143142D01*
X+6069144Y+5169427D01*
X+6060029Y+5195712D01*
X+6045182Y+5221997D01*
X+6022470Y+5248118D01*
X+5996185Y+5267898D01*
X+5969900Y+5280658D01*
X+5943615Y+5288108D01*
X+5917330Y+5290987D01*
X+5913000Y+5291045D01*
X+5751955Y+5130000D02*
X+5752492Y+5143142D01*
X+5756856Y+5169427D01*
X+5765971Y+5195712D01*
X+5780818Y+5221997D01*
X+5803530Y+5248118D01*
X+5829815Y+5267898D01*
X+5856100Y+5280658D01*
X+5882385Y+5288108D01*
X+5908670Y+5290987D01*
X+5913000Y+5291045D01*
X+5751955Y+5130000D02*
X+5752492Y+5116858D01*
X+5756856Y+5090573D01*
X+5765971Y+5064288D01*
X+5780818Y+5038003D01*
X+5803530Y+5011882D01*
X+5829815Y+4992102D01*
X+5856100Y+4979342D01*
X+5882385Y+4971892D01*
X+5908670Y+4969013D01*
X+5913000Y+4968955D01*
X+6074045Y+5130000D02*
X+6073508Y+5116858D01*
X+6069144Y+5090573D01*
X+6060029Y+5064288D01*
X+6045182Y+5038003D01*
X+6022470Y+5011882D01*
X+5996185Y+4992102D01*
X+5969900Y+4979342D01*
X+5943615Y+4971892D01*
X+5917330Y+4969013D01*
X+5913000Y+4968955D01*
X+1248045Y+5257000D02*
X+1247508Y+5270142D01*
X+1243144Y+5296427D01*
X+1234029Y+5322712D01*
X+1219182Y+5348997D01*
X+1196470Y+5375118D01*
X+1170185Y+5394898D01*
X+1143900Y+5407658D01*
X+1117615Y+5415108D01*
X+1091330Y+5417987D01*
X+1087000Y+5418045D01*
X+925955Y+5257000D02*
X+926492Y+5270142D01*
X+930856Y+5296427D01*
X+939971Y+5322712D01*
X+954818Y+5348997D01*
X+977530Y+5375118D01*
X+1003815Y+5394898D01*
X+1030100Y+5407658D01*
X+1056385Y+5415108D01*
X+1082670Y+5417987D01*
X+1087000Y+5418045D01*
X+925955Y+5257000D02*
X+926492Y+5243858D01*
X+930856Y+5217573D01*
X+939971Y+5191288D01*
X+954818Y+5165003D01*
X+977530Y+5138882D01*
X+1003815Y+5119102D01*
X+1030100Y+5106342D01*
X+1056385Y+5098892D01*
X+1082670Y+5096013D01*
X+1087000Y+5095955D01*
X+1248045Y+5257000D02*
X+1247508Y+5243858D01*
X+1243144Y+5217573D01*
X+1234029Y+5191288D01*
X+1219182Y+5165003D01*
X+1196470Y+5138882D01*
X+1170185Y+5119102D01*
X+1143900Y+5106342D01*
X+1117615Y+5098892D01*
X+1091330Y+5096013D01*
X+1087000Y+5095955D01*
M02*
