G04 PROTEUS GERBER X2 FILE*
%TF.GenerationSoftware,Labcenter,Proteus,8.12-SP2-Build31155*%
%TF.CreationDate,2021-12-06T20:36:36+00:00*%
%TF.FileFunction,AssemblyDrawing,Bot*%
%TF.FilePolarity,Positive*%
%TF.Part,Single*%
%TF.SameCoordinates,{41aeb68f-70a9-4567-b6d7-def337a2806a}*%
%FSLAX45Y45*%
%MOMM*%
G01*
%TA.AperFunction,Profile*%
%ADD17C,0.203200*%
%TA.AperFunction,Material*%
%ADD21C,0.203200*%
%ADD41C,0.508000*%
%ADD46C,0.461430*%
%ADD47C,0.473190*%
%ADD48C,0.050000*%
%ADD49C,0.411480*%
%ADD50C,0.167200*%
%ADD51C,0.416560*%
%ADD52C,0.111560*%
%ADD53C,1.028700*%
%ADD54C,0.105240*%
%ADD55C,0.579120*%
%ADD56C,0.072740*%
%TD.AperFunction*%
D17*
X+0Y+0D02*
X+1650000Y+0D01*
X+7000000Y+0D02*
X+7000000Y+6000000D01*
X+5000000Y+6000000D01*
X+5000000Y+3700000D01*
X+4800000Y+3500000D01*
X+2200000Y+3500000D01*
X+2000000Y+3700000D02*
X+2000000Y+6000000D01*
X+0Y+6000000D01*
X+0Y+0D01*
X+2000000Y+3700000D02*
X+2200000Y+3500000D01*
X+5160000Y+0D02*
X+7000000Y+0D01*
X+1750000Y-200000D02*
X+5050000Y-200000D01*
X+1650000Y+0D02*
X+1750000Y-200000D01*
X+5160000Y+0D02*
X+5050000Y-200000D01*
X+4550045Y+50000D02*
X+4549508Y+63142D01*
X+4545144Y+89427D01*
X+4536029Y+115712D01*
X+4521182Y+141997D01*
X+4498470Y+168118D01*
X+4472185Y+187898D01*
X+4445900Y+200658D01*
X+4419615Y+208108D01*
X+4393330Y+210987D01*
X+4389000Y+211045D01*
X+4227955Y+50000D02*
X+4228492Y+63142D01*
X+4232856Y+89427D01*
X+4241971Y+115712D01*
X+4256818Y+141997D01*
X+4279530Y+168118D01*
X+4305815Y+187898D01*
X+4332100Y+200658D01*
X+4358385Y+208108D01*
X+4384670Y+210987D01*
X+4389000Y+211045D01*
X+4227955Y+50000D02*
X+4228492Y+36858D01*
X+4232856Y+10573D01*
X+4241971Y-15712D01*
X+4256818Y-41997D01*
X+4279530Y-68118D01*
X+4305815Y-87898D01*
X+4332100Y-100658D01*
X+4358385Y-108108D01*
X+4384670Y-110987D01*
X+4389000Y-111045D01*
X+4550045Y+50000D02*
X+4549508Y+36858D01*
X+4545144Y+10573D01*
X+4536029Y-15712D01*
X+4521182Y-41997D01*
X+4498470Y-68118D01*
X+4472185Y-87898D01*
X+4445900Y-100658D01*
X+4419615Y-108108D01*
X+4393330Y-110987D01*
X+4389000Y-111045D01*
X+6074045Y+5130000D02*
X+6073508Y+5143142D01*
X+6069144Y+5169427D01*
X+6060029Y+5195712D01*
X+6045182Y+5221997D01*
X+6022470Y+5248118D01*
X+5996185Y+5267898D01*
X+5969900Y+5280658D01*
X+5943615Y+5288108D01*
X+5917330Y+5290987D01*
X+5913000Y+5291045D01*
X+5751955Y+5130000D02*
X+5752492Y+5143142D01*
X+5756856Y+5169427D01*
X+5765971Y+5195712D01*
X+5780818Y+5221997D01*
X+5803530Y+5248118D01*
X+5829815Y+5267898D01*
X+5856100Y+5280658D01*
X+5882385Y+5288108D01*
X+5908670Y+5290987D01*
X+5913000Y+5291045D01*
X+5751955Y+5130000D02*
X+5752492Y+5116858D01*
X+5756856Y+5090573D01*
X+5765971Y+5064288D01*
X+5780818Y+5038003D01*
X+5803530Y+5011882D01*
X+5829815Y+4992102D01*
X+5856100Y+4979342D01*
X+5882385Y+4971892D01*
X+5908670Y+4969013D01*
X+5913000Y+4968955D01*
X+6074045Y+5130000D02*
X+6073508Y+5116858D01*
X+6069144Y+5090573D01*
X+6060029Y+5064288D01*
X+6045182Y+5038003D01*
X+6022470Y+5011882D01*
X+5996185Y+4992102D01*
X+5969900Y+4979342D01*
X+5943615Y+4971892D01*
X+5917330Y+4969013D01*
X+5913000Y+4968955D01*
X+1248045Y+5257000D02*
X+1247508Y+5270142D01*
X+1243144Y+5296427D01*
X+1234029Y+5322712D01*
X+1219182Y+5348997D01*
X+1196470Y+5375118D01*
X+1170185Y+5394898D01*
X+1143900Y+5407658D01*
X+1117615Y+5415108D01*
X+1091330Y+5417987D01*
X+1087000Y+5418045D01*
X+925955Y+5257000D02*
X+926492Y+5270142D01*
X+930856Y+5296427D01*
X+939971Y+5322712D01*
X+954818Y+5348997D01*
X+977530Y+5375118D01*
X+1003815Y+5394898D01*
X+1030100Y+5407658D01*
X+1056385Y+5415108D01*
X+1082670Y+5417987D01*
X+1087000Y+5418045D01*
X+925955Y+5257000D02*
X+926492Y+5243858D01*
X+930856Y+5217573D01*
X+939971Y+5191288D01*
X+954818Y+5165003D01*
X+977530Y+5138882D01*
X+1003815Y+5119102D01*
X+1030100Y+5106342D01*
X+1056385Y+5098892D01*
X+1082670Y+5096013D01*
X+1087000Y+5095955D01*
X+1248045Y+5257000D02*
X+1247508Y+5243858D01*
X+1243144Y+5217573D01*
X+1234029Y+5191288D01*
X+1219182Y+5165003D01*
X+1196470Y+5138882D01*
X+1170185Y+5119102D01*
X+1143900Y+5106342D01*
X+1117615Y+5098892D01*
X+1091330Y+5096013D01*
X+1087000Y+5095955D01*
D21*
X+59840Y+35840D02*
X+840160Y+35840D01*
X+840160Y+5136160D01*
X+59840Y+5136160D01*
X+59840Y+35840D01*
D41*
X+260000Y+4876000D02*
X+260000Y+4876000D01*
D46*
X+542288Y+2754691D02*
X+588432Y+2806603D01*
X+588432Y+2962339D01*
X+496144Y+3066162D01*
X+403856Y+3066162D01*
X+311568Y+2962339D01*
X+311568Y+2806603D01*
X+357712Y+2754691D01*
X+588432Y+2650867D02*
X+311568Y+2650867D01*
X+588432Y+2339396D01*
X+311568Y+2339396D01*
X+311568Y+2183661D02*
X+311568Y+1924101D01*
X+357712Y+1924101D01*
X+588432Y+2183661D01*
D21*
X+6155840Y+39840D02*
X+6936160Y+39840D01*
X+6936160Y+5140160D01*
X+6155840Y+5140160D01*
X+6155840Y+39840D01*
D41*
X+6356000Y+4880000D02*
X+6356000Y+4880000D01*
D47*
X+6640640Y+2979569D02*
X+6687960Y+3032804D01*
X+6687960Y+3192509D01*
X+6593320Y+3298978D01*
X+6498680Y+3298978D01*
X+6404040Y+3192509D01*
X+6404040Y+3032804D01*
X+6451360Y+2979569D01*
X+6687960Y+2873099D02*
X+6404040Y+2873099D01*
X+6687960Y+2553690D01*
X+6404040Y+2553690D01*
X+6498680Y+2340751D02*
X+6404040Y+2234281D01*
X+6687960Y+2234281D01*
X+6640640Y+2021341D02*
X+6451360Y+2021341D01*
X+6404040Y+1968107D01*
X+6404040Y+1755167D01*
X+6451360Y+1701932D01*
X+6640640Y+1701932D01*
X+6687960Y+1755167D01*
X+6687960Y+1968107D01*
X+6640640Y+2021341D01*
X+6687960Y+2021341D02*
X+6404040Y+1701932D01*
D48*
X+2250000Y+137500D02*
X+1610000Y+137500D01*
X+1610000Y+497500D01*
X+2250000Y+497500D01*
X+2250000Y+137500D01*
X+1930000Y+367500D02*
X+1930000Y+267500D01*
X+1880000Y+317500D02*
X+1980000Y+317500D01*
D49*
X+2150000Y+415000D02*
X+2150000Y+415000D01*
D50*
X+2018944Y+367660D02*
X+2018944Y+284059D01*
X+2000134Y+267339D01*
X+1924894Y+267339D01*
X+1906084Y+284059D01*
X+1906084Y+367660D01*
X+1755603Y+367660D02*
X+1849653Y+367660D01*
X+1849653Y+334220D01*
X+1774413Y+334220D01*
X+1755603Y+317500D01*
X+1755603Y+284059D01*
X+1774413Y+267339D01*
X+1830843Y+267339D01*
X+1849653Y+284059D01*
D48*
X+3700000Y+2837500D02*
X+3060000Y+2837500D01*
X+3060000Y+3197500D01*
X+3700000Y+3197500D01*
X+3700000Y+2837500D01*
X+3380000Y+3067500D02*
X+3380000Y+2967500D01*
X+3330000Y+3017500D02*
X+3430000Y+3017500D01*
D49*
X+3600000Y+3115000D02*
X+3600000Y+3115000D01*
D50*
X+3468944Y+3067660D02*
X+3468944Y+2984059D01*
X+3450134Y+2967339D01*
X+3374894Y+2967339D01*
X+3356084Y+2984059D01*
X+3356084Y+3067660D01*
X+3205603Y+3050940D02*
X+3224413Y+3067660D01*
X+3280843Y+3067660D01*
X+3299653Y+3050940D01*
X+3299653Y+2984059D01*
X+3280843Y+2967339D01*
X+3224413Y+2967339D01*
X+3205603Y+2984059D01*
X+3205603Y+3000779D01*
X+3224413Y+3017500D01*
X+3299653Y+3017500D01*
D48*
X+800000Y+5437500D02*
X+160000Y+5437500D01*
X+160000Y+5797500D01*
X+800000Y+5797500D01*
X+800000Y+5437500D01*
X+480000Y+5667500D02*
X+480000Y+5567500D01*
X+430000Y+5617500D02*
X+530000Y+5617500D01*
D49*
X+700000Y+5715000D02*
X+700000Y+5715000D01*
D50*
X+568944Y+5667660D02*
X+568944Y+5584059D01*
X+550134Y+5567339D01*
X+474894Y+5567339D01*
X+456084Y+5584059D01*
X+456084Y+5667660D01*
X+380843Y+5617500D02*
X+399653Y+5634220D01*
X+399653Y+5650940D01*
X+380843Y+5667660D01*
X+324413Y+5667660D01*
X+305603Y+5650940D01*
X+305603Y+5634220D01*
X+324413Y+5617500D01*
X+380843Y+5617500D01*
X+399653Y+5600779D01*
X+399653Y+5584059D01*
X+380843Y+5567339D01*
X+324413Y+5567339D01*
X+305603Y+5584059D01*
X+305603Y+5600779D01*
X+324413Y+5617500D01*
D48*
X+6800000Y+5437500D02*
X+6160000Y+5437500D01*
X+6160000Y+5797500D01*
X+6800000Y+5797500D01*
X+6800000Y+5437500D01*
X+6480000Y+5667500D02*
X+6480000Y+5567500D01*
X+6430000Y+5617500D02*
X+6530000Y+5617500D01*
D49*
X+6700000Y+5715000D02*
X+6700000Y+5715000D01*
D50*
X+6644184Y+5667660D02*
X+6644184Y+5584059D01*
X+6625374Y+5567339D01*
X+6550134Y+5567339D01*
X+6531324Y+5584059D01*
X+6531324Y+5667660D01*
X+6456083Y+5634220D02*
X+6418463Y+5667660D01*
X+6418463Y+5567339D01*
X+6343222Y+5584059D02*
X+6343222Y+5650940D01*
X+6324412Y+5667660D01*
X+6249172Y+5667660D01*
X+6230362Y+5650940D01*
X+6230362Y+5584059D01*
X+6249172Y+5567339D01*
X+6324412Y+5567339D01*
X+6343222Y+5584059D01*
X+6343222Y+5567339D02*
X+6230362Y+5667660D01*
D48*
X+5507500Y+5290000D02*
X+5507500Y+5930000D01*
X+5867500Y+5930000D01*
X+5867500Y+5290000D01*
X+5507500Y+5290000D01*
X+5737500Y+5610000D02*
X+5637500Y+5610000D01*
X+5687500Y+5660000D02*
X+5687500Y+5560000D01*
D49*
X+5785000Y+5390000D02*
X+5785000Y+5390000D01*
D50*
X+5637340Y+5897258D02*
X+5720941Y+5897258D01*
X+5737661Y+5878448D01*
X+5737661Y+5803208D01*
X+5720941Y+5784398D01*
X+5637340Y+5784398D01*
X+5670780Y+5709157D02*
X+5637340Y+5671537D01*
X+5737661Y+5671537D01*
X+5670780Y+5558676D02*
X+5637340Y+5521056D01*
X+5737661Y+5521056D01*
D48*
X+1780000Y+5425000D02*
X+1350000Y+5425000D01*
X+1350000Y+5775000D01*
X+1780000Y+5775000D01*
X+1780000Y+5425000D01*
X+1565000Y+5650000D02*
X+1565000Y+5550000D01*
X+1515000Y+5600000D02*
X+1615000Y+5600000D01*
D51*
X+1700000Y+5695000D02*
X+1700000Y+5695000D01*
D52*
X+1479868Y+5750606D02*
X+1535648Y+5750606D01*
X+1546804Y+5738056D01*
X+1546804Y+5687854D01*
X+1535648Y+5675303D01*
X+1479868Y+5675303D01*
X+1502180Y+5625101D02*
X+1479868Y+5600000D01*
X+1546804Y+5600000D01*
X+1491024Y+5537248D02*
X+1479868Y+5524697D01*
X+1479868Y+5487046D01*
X+1491024Y+5474495D01*
X+1502180Y+5474495D01*
X+1513336Y+5487046D01*
X+1513336Y+5524697D01*
X+1524492Y+5537248D01*
X+1546804Y+5537248D01*
X+1546804Y+5474495D01*
D48*
X+6150000Y+2937500D02*
X+5510000Y+2937500D01*
X+5510000Y+3297500D01*
X+6150000Y+3297500D01*
X+6150000Y+2937500D01*
X+5830000Y+3167500D02*
X+5830000Y+3067500D01*
X+5780000Y+3117500D02*
X+5880000Y+3117500D01*
D49*
X+6050000Y+3215000D02*
X+6050000Y+3215000D01*
D50*
X+5994184Y+3167660D02*
X+5994184Y+3084059D01*
X+5975374Y+3067339D01*
X+5900134Y+3067339D01*
X+5881324Y+3084059D01*
X+5881324Y+3167660D01*
X+5806083Y+3134220D02*
X+5768463Y+3167660D01*
X+5768463Y+3067339D01*
X+5674412Y+3150940D02*
X+5655602Y+3167660D01*
X+5599172Y+3167660D01*
X+5580362Y+3150940D01*
X+5580362Y+3134220D01*
X+5599172Y+3117500D01*
X+5580362Y+3100779D01*
X+5580362Y+3084059D01*
X+5599172Y+3067339D01*
X+5655602Y+3067339D01*
X+5674412Y+3084059D01*
X+5636792Y+3117500D02*
X+5599172Y+3117500D01*
D48*
X+1935000Y+4930000D02*
X+1465000Y+4930000D01*
X+1465000Y+5250000D01*
X+1935000Y+5250000D01*
X+1935000Y+4930000D01*
X+1700000Y+5140000D02*
X+1700000Y+5040000D01*
X+1650000Y+5090000D02*
X+1750000Y+5090000D01*
D53*
X+1850000Y+5090000D02*
X+1850000Y+5090000D01*
D54*
X+1654214Y+5068950D02*
X+1666055Y+5058425D01*
X+1701576Y+5058425D01*
X+1725256Y+5079475D01*
X+1725256Y+5100524D01*
X+1701576Y+5121574D01*
X+1666055Y+5121574D01*
X+1654214Y+5111049D01*
X+1606853Y+5100524D02*
X+1583172Y+5121574D01*
X+1583172Y+5058425D01*
D48*
X+1945000Y+4290000D02*
X+1475000Y+4290000D01*
X+1475000Y+4610000D01*
X+1945000Y+4610000D01*
X+1945000Y+4290000D01*
X+1710000Y+4500000D02*
X+1710000Y+4400000D01*
X+1660000Y+4450000D02*
X+1760000Y+4450000D01*
D53*
X+1860000Y+4450000D02*
X+1860000Y+4450000D01*
D54*
X+1664214Y+4428950D02*
X+1676055Y+4418425D01*
X+1711576Y+4418425D01*
X+1735256Y+4439475D01*
X+1735256Y+4460524D01*
X+1711576Y+4481574D01*
X+1676055Y+4481574D01*
X+1664214Y+4471049D01*
X+1628693Y+4471049D02*
X+1616853Y+4481574D01*
X+1581332Y+4481574D01*
X+1569491Y+4471049D01*
X+1569491Y+4460524D01*
X+1581332Y+4450000D01*
X+1616853Y+4450000D01*
X+1628693Y+4439475D01*
X+1628693Y+4418425D01*
X+1569491Y+4418425D01*
D48*
X+1935000Y+3870000D02*
X+1585000Y+3870000D01*
X+1585000Y+4070000D01*
X+1935000Y+4070000D01*
X+1935000Y+3870000D01*
X+1760000Y+4020000D02*
X+1760000Y+3920000D01*
X+1710000Y+3970000D02*
X+1810000Y+3970000D01*
D55*
X+1850000Y+3970000D02*
X+1850000Y+3970000D01*
D56*
X+1718139Y+3955452D02*
X+1726322Y+3948178D01*
X+1750872Y+3948178D01*
X+1767238Y+3962726D01*
X+1767238Y+3977274D01*
X+1750872Y+3991822D01*
X+1726322Y+3991822D01*
X+1718139Y+3984548D01*
X+1693589Y+3984548D02*
X+1685406Y+3991822D01*
X+1660856Y+3991822D01*
X+1652673Y+3984548D01*
X+1652673Y+3977274D01*
X+1660856Y+3970000D01*
X+1652673Y+3962726D01*
X+1652673Y+3955452D01*
X+1660856Y+3948178D01*
X+1685406Y+3948178D01*
X+1693589Y+3955452D01*
X+1677223Y+3970000D02*
X+1660856Y+3970000D01*
D48*
X+3515000Y+2170000D02*
X+3165000Y+2170000D01*
X+3165000Y+2370000D01*
X+3515000Y+2370000D01*
X+3515000Y+2170000D01*
X+3340000Y+2320000D02*
X+3340000Y+2220000D01*
X+3290000Y+2270000D02*
X+3390000Y+2270000D01*
D55*
X+3430000Y+2270000D02*
X+3430000Y+2270000D01*
D56*
X+3298139Y+2255452D02*
X+3306322Y+2248178D01*
X+3330872Y+2248178D01*
X+3347238Y+2262726D01*
X+3347238Y+2277274D01*
X+3330872Y+2291822D01*
X+3306322Y+2291822D01*
X+3298139Y+2284548D01*
X+3232673Y+2262726D02*
X+3281772Y+2262726D01*
X+3249039Y+2291822D01*
X+3249039Y+2248178D01*
D48*
X+3585000Y+1640000D02*
X+3115000Y+1640000D01*
X+3115000Y+1960000D01*
X+3585000Y+1960000D01*
X+3585000Y+1640000D01*
X+3350000Y+1850000D02*
X+3350000Y+1750000D01*
X+3300000Y+1800000D02*
X+3400000Y+1800000D01*
D53*
X+3500000Y+1800000D02*
X+3500000Y+1800000D01*
D54*
X+3304214Y+1778950D02*
X+3316055Y+1768425D01*
X+3351576Y+1768425D01*
X+3375256Y+1789475D01*
X+3375256Y+1810524D01*
X+3351576Y+1831574D01*
X+3316055Y+1831574D01*
X+3304214Y+1821049D01*
X+3209491Y+1831574D02*
X+3268693Y+1831574D01*
X+3268693Y+1810524D01*
X+3221332Y+1810524D01*
X+3209491Y+1800000D01*
X+3209491Y+1778950D01*
X+3221332Y+1768425D01*
X+3256853Y+1768425D01*
X+3268693Y+1778950D01*
D48*
X+3545000Y+1110000D02*
X+3075000Y+1110000D01*
X+3075000Y+1430000D01*
X+3545000Y+1430000D01*
X+3545000Y+1110000D01*
X+3310000Y+1320000D02*
X+3310000Y+1220000D01*
X+3260000Y+1270000D02*
X+3360000Y+1270000D01*
D53*
X+3460000Y+1270000D02*
X+3460000Y+1270000D01*
D54*
X+3264214Y+1248950D02*
X+3276055Y+1238425D01*
X+3311576Y+1238425D01*
X+3335256Y+1259475D01*
X+3335256Y+1280524D01*
X+3311576Y+1301574D01*
X+3276055Y+1301574D01*
X+3264214Y+1291049D01*
X+3169491Y+1291049D02*
X+3181332Y+1301574D01*
X+3216853Y+1301574D01*
X+3228693Y+1291049D01*
X+3228693Y+1248950D01*
X+3216853Y+1238425D01*
X+3181332Y+1238425D01*
X+3169491Y+1248950D01*
X+3169491Y+1259475D01*
X+3181332Y+1270000D01*
X+3228693Y+1270000D01*
D48*
X+3525000Y+580000D02*
X+3055000Y+580000D01*
X+3055000Y+900000D01*
X+3525000Y+900000D01*
X+3525000Y+580000D01*
X+3290000Y+790000D02*
X+3290000Y+690000D01*
X+3240000Y+740000D02*
X+3340000Y+740000D01*
D53*
X+3440000Y+740000D02*
X+3440000Y+740000D01*
D54*
X+3244214Y+718950D02*
X+3256055Y+708425D01*
X+3291576Y+708425D01*
X+3315256Y+729475D01*
X+3315256Y+750524D01*
X+3291576Y+771574D01*
X+3256055Y+771574D01*
X+3244214Y+761049D01*
X+3208693Y+771574D02*
X+3149491Y+771574D01*
X+3149491Y+761049D01*
X+3208693Y+708425D01*
D48*
X+4335000Y+2310000D02*
X+3985000Y+2310000D01*
X+3985000Y+2510000D01*
X+4335000Y+2510000D01*
X+4335000Y+2310000D01*
X+4160000Y+2460000D02*
X+4160000Y+2360000D01*
X+4110000Y+2410000D02*
X+4210000Y+2410000D01*
D55*
X+4250000Y+2410000D02*
X+4250000Y+2410000D01*
D56*
X+4118139Y+2395452D02*
X+4126322Y+2388178D01*
X+4150872Y+2388178D01*
X+4167238Y+2402726D01*
X+4167238Y+2417274D01*
X+4150872Y+2431822D01*
X+4126322Y+2431822D01*
X+4118139Y+2424548D01*
X+4085406Y+2410000D02*
X+4093589Y+2417274D01*
X+4093589Y+2424548D01*
X+4085406Y+2431822D01*
X+4060856Y+2431822D01*
X+4052673Y+2424548D01*
X+4052673Y+2417274D01*
X+4060856Y+2410000D01*
X+4085406Y+2410000D01*
X+4093589Y+2402726D01*
X+4093589Y+2395452D01*
X+4085406Y+2388178D01*
X+4060856Y+2388178D01*
X+4052673Y+2395452D01*
X+4052673Y+2402726D01*
X+4060856Y+2410000D01*
D48*
X+4755000Y+2310000D02*
X+4405000Y+2310000D01*
X+4405000Y+2510000D01*
X+4755000Y+2510000D01*
X+4755000Y+2310000D01*
X+4580000Y+2460000D02*
X+4580000Y+2360000D01*
X+4530000Y+2410000D02*
X+4630000Y+2410000D01*
D55*
X+4670000Y+2410000D02*
X+4670000Y+2410000D01*
D56*
X+4538139Y+2395452D02*
X+4546322Y+2388178D01*
X+4570872Y+2388178D01*
X+4587238Y+2402726D01*
X+4587238Y+2417274D01*
X+4570872Y+2431822D01*
X+4546322Y+2431822D01*
X+4538139Y+2424548D01*
X+4472673Y+2417274D02*
X+4480856Y+2410000D01*
X+4505406Y+2410000D01*
X+4513589Y+2417274D01*
X+4513589Y+2424548D01*
X+4505406Y+2431822D01*
X+4480856Y+2431822D01*
X+4472673Y+2424548D01*
X+4472673Y+2395452D01*
X+4480856Y+2388178D01*
X+4505406Y+2388178D01*
D48*
X+2035000Y+3060000D02*
X+1685000Y+3060000D01*
X+1685000Y+3260000D01*
X+2035000Y+3260000D01*
X+2035000Y+3060000D01*
X+1860000Y+3210000D02*
X+1860000Y+3110000D01*
X+1810000Y+3160000D02*
X+1910000Y+3160000D01*
D55*
X+1950000Y+3160000D02*
X+1950000Y+3160000D01*
D56*
X+1850872Y+3145452D02*
X+1859055Y+3138178D01*
X+1883605Y+3138178D01*
X+1899971Y+3152726D01*
X+1899971Y+3167274D01*
X+1883605Y+3181822D01*
X+1859055Y+3181822D01*
X+1850872Y+3174548D01*
X+1818139Y+3167274D02*
X+1801772Y+3181822D01*
X+1801772Y+3138178D01*
X+1769039Y+3145452D02*
X+1769039Y+3174548D01*
X+1760856Y+3181822D01*
X+1728123Y+3181822D01*
X+1719940Y+3174548D01*
X+1719940Y+3145452D01*
X+1728123Y+3138178D01*
X+1760856Y+3138178D01*
X+1769039Y+3145452D01*
X+1769039Y+3138178D02*
X+1719940Y+3181822D01*
D48*
X+2025000Y+2620000D02*
X+1675000Y+2620000D01*
X+1675000Y+2820000D01*
X+2025000Y+2820000D01*
X+2025000Y+2620000D01*
X+1850000Y+2770000D02*
X+1850000Y+2670000D01*
X+1800000Y+2720000D02*
X+1900000Y+2720000D01*
D55*
X+1940000Y+2720000D02*
X+1940000Y+2720000D01*
D56*
X+1840872Y+2705452D02*
X+1849055Y+2698178D01*
X+1873605Y+2698178D01*
X+1889971Y+2712726D01*
X+1889971Y+2727274D01*
X+1873605Y+2741822D01*
X+1849055Y+2741822D01*
X+1840872Y+2734548D01*
X+1808139Y+2727274D02*
X+1791772Y+2741822D01*
X+1791772Y+2698178D01*
X+1742673Y+2727274D02*
X+1726306Y+2741822D01*
X+1726306Y+2698178D01*
D48*
X+2045000Y+2210000D02*
X+1695000Y+2210000D01*
X+1695000Y+2410000D01*
X+2045000Y+2410000D01*
X+2045000Y+2210000D01*
X+1870000Y+2360000D02*
X+1870000Y+2260000D01*
X+1820000Y+2310000D02*
X+1920000Y+2310000D01*
D55*
X+1960000Y+2310000D02*
X+1960000Y+2310000D01*
D56*
X+1860872Y+2295452D02*
X+1869055Y+2288178D01*
X+1893605Y+2288178D01*
X+1909971Y+2302726D01*
X+1909971Y+2317274D01*
X+1893605Y+2331822D01*
X+1869055Y+2331822D01*
X+1860872Y+2324548D01*
X+1828139Y+2317274D02*
X+1811772Y+2331822D01*
X+1811772Y+2288178D01*
X+1770856Y+2324548D02*
X+1762673Y+2331822D01*
X+1738123Y+2331822D01*
X+1729940Y+2324548D01*
X+1729940Y+2317274D01*
X+1738123Y+2310000D01*
X+1762673Y+2310000D01*
X+1770856Y+2302726D01*
X+1770856Y+2288178D01*
X+1729940Y+2288178D01*
D48*
X+2045000Y+1810000D02*
X+1695000Y+1810000D01*
X+1695000Y+2010000D01*
X+2045000Y+2010000D01*
X+2045000Y+1810000D01*
X+1870000Y+1960000D02*
X+1870000Y+1860000D01*
X+1820000Y+1910000D02*
X+1920000Y+1910000D01*
D55*
X+1960000Y+1910000D02*
X+1960000Y+1910000D01*
D56*
X+1860872Y+1895452D02*
X+1869055Y+1888178D01*
X+1893605Y+1888178D01*
X+1909971Y+1902726D01*
X+1909971Y+1917274D01*
X+1893605Y+1931822D01*
X+1869055Y+1931822D01*
X+1860872Y+1924548D01*
X+1828139Y+1917274D02*
X+1811772Y+1931822D01*
X+1811772Y+1888178D01*
X+1770856Y+1924548D02*
X+1762673Y+1931822D01*
X+1738123Y+1931822D01*
X+1729940Y+1924548D01*
X+1729940Y+1917274D01*
X+1738123Y+1910000D01*
X+1729940Y+1902726D01*
X+1729940Y+1895452D01*
X+1738123Y+1888178D01*
X+1762673Y+1888178D01*
X+1770856Y+1895452D01*
X+1754490Y+1910000D02*
X+1738123Y+1910000D01*
D48*
X+3545000Y+2490000D02*
X+3195000Y+2490000D01*
X+3195000Y+2690000D01*
X+3545000Y+2690000D01*
X+3545000Y+2490000D01*
X+3370000Y+2640000D02*
X+3370000Y+2540000D01*
X+3320000Y+2590000D02*
X+3420000Y+2590000D01*
D55*
X+3460000Y+2590000D02*
X+3460000Y+2590000D01*
D56*
X+3360872Y+2575452D02*
X+3369055Y+2568178D01*
X+3393605Y+2568178D01*
X+3409971Y+2582726D01*
X+3409971Y+2597274D01*
X+3393605Y+2611822D01*
X+3369055Y+2611822D01*
X+3360872Y+2604548D01*
X+3328139Y+2597274D02*
X+3311772Y+2611822D01*
X+3311772Y+2568178D01*
X+3229940Y+2582726D02*
X+3279039Y+2582726D01*
X+3246306Y+2611822D01*
X+3246306Y+2568178D01*
D48*
X+5365000Y+2300000D02*
X+5015000Y+2300000D01*
X+5015000Y+2500000D01*
X+5365000Y+2500000D01*
X+5365000Y+2300000D01*
X+5190000Y+2450000D02*
X+5190000Y+2350000D01*
X+5140000Y+2400000D02*
X+5240000Y+2400000D01*
D55*
X+5280000Y+2400000D02*
X+5280000Y+2400000D01*
D56*
X+5180872Y+2385452D02*
X+5189055Y+2378178D01*
X+5213605Y+2378178D01*
X+5229971Y+2392726D01*
X+5229971Y+2407274D01*
X+5213605Y+2421822D01*
X+5189055Y+2421822D01*
X+5180872Y+2414548D01*
X+5148139Y+2407274D02*
X+5131772Y+2421822D01*
X+5131772Y+2378178D01*
X+5049940Y+2421822D02*
X+5090856Y+2421822D01*
X+5090856Y+2407274D01*
X+5058123Y+2407274D01*
X+5049940Y+2400000D01*
X+5049940Y+2385452D01*
X+5058123Y+2378178D01*
X+5082673Y+2378178D01*
X+5090856Y+2385452D01*
D48*
X+2035000Y+1450000D02*
X+1685000Y+1450000D01*
X+1685000Y+1650000D01*
X+2035000Y+1650000D01*
X+2035000Y+1450000D01*
X+1860000Y+1600000D02*
X+1860000Y+1500000D01*
X+1810000Y+1550000D02*
X+1910000Y+1550000D01*
D55*
X+1950000Y+1550000D02*
X+1950000Y+1550000D01*
D56*
X+1850872Y+1535452D02*
X+1859055Y+1528178D01*
X+1883605Y+1528178D01*
X+1899971Y+1542726D01*
X+1899971Y+1557274D01*
X+1883605Y+1571822D01*
X+1859055Y+1571822D01*
X+1850872Y+1564548D01*
X+1818139Y+1557274D02*
X+1801772Y+1571822D01*
X+1801772Y+1528178D01*
X+1719940Y+1564548D02*
X+1728123Y+1571822D01*
X+1752673Y+1571822D01*
X+1760856Y+1564548D01*
X+1760856Y+1535452D01*
X+1752673Y+1528178D01*
X+1728123Y+1528178D01*
X+1719940Y+1535452D01*
X+1719940Y+1542726D01*
X+1728123Y+1550000D01*
X+1760856Y+1550000D01*
D48*
X+5815000Y+2310000D02*
X+5465000Y+2310000D01*
X+5465000Y+2510000D01*
X+5815000Y+2510000D01*
X+5815000Y+2310000D01*
X+5640000Y+2460000D02*
X+5640000Y+2360000D01*
X+5590000Y+2410000D02*
X+5690000Y+2410000D01*
D55*
X+5730000Y+2410000D02*
X+5730000Y+2410000D01*
D56*
X+5630872Y+2395452D02*
X+5639055Y+2388178D01*
X+5663605Y+2388178D01*
X+5679971Y+2402726D01*
X+5679971Y+2417274D01*
X+5663605Y+2431822D01*
X+5639055Y+2431822D01*
X+5630872Y+2424548D01*
X+5598139Y+2417274D02*
X+5581772Y+2431822D01*
X+5581772Y+2388178D01*
X+5540856Y+2431822D02*
X+5499940Y+2431822D01*
X+5499940Y+2424548D01*
X+5540856Y+2388178D01*
M02*
