G04 PROTEUS GERBER X2 FILE*
%TF.GenerationSoftware,Labcenter,Proteus,8.12-SP2-Build31155*%
%TF.CreationDate,2021-12-06T20:36:36+00:00*%
%TF.FileFunction,Copper,L1,Top*%
%TF.FilePolarity,Positive*%
%TF.Part,Single*%
%TF.SameCoordinates,{41aeb68f-70a9-4567-b6d7-def337a2806a}*%
%FSLAX45Y45*%
%MOMM*%
G01*
%TA.AperFunction,Conductor*%
%ADD10C,0.203200*%
%ADD11C,0.381000*%
%ADD12C,0.304800*%
%TA.AperFunction,ComponentPad*%
%ADD13R,1.270000X1.270000*%
%ADD14C,1.524000*%
%TA.AperFunction,ComponentPad*%
%ADD15C,1.270000*%
%TA.AperFunction,ComponentPad*%
%ADD16R,2.032000X2.032000*%
%TA.AperFunction,Profile*%
%ADD17C,0.203200*%
%TD.AperFunction*%
D10*
X+2950000Y+602000D02*
X+3404000Y+148000D01*
X+3404000Y+100000D01*
X+2550000Y+1022000D02*
X+2862000Y+1022000D01*
X+2950000Y+1110000D01*
X+2550000Y+1276000D02*
X+2862000Y+1276000D01*
X+2950000Y+1364000D01*
X+2550000Y+1530000D02*
X+2862000Y+1530000D01*
X+2950000Y+1618000D01*
D11*
X+5000000Y+350000D02*
X+5000000Y+738000D01*
X+4988000Y+750000D01*
X+4988000Y+1100000D01*
D10*
X+4558000Y+3250000D02*
X+4713046Y+3094954D01*
X+4781893Y+3094954D01*
X+5327046Y+3094954D01*
X+5598000Y+2824000D01*
X+4304000Y+3250000D02*
X+4523818Y+3030182D01*
X+4684735Y+3030182D01*
X+5137818Y+3030182D01*
X+5344000Y+2824000D01*
X+4050000Y+3250000D02*
X+4060828Y+3250000D01*
X+4354672Y+2956156D01*
X+4957844Y+2956156D01*
X+5090000Y+2824000D01*
X+1100000Y+2242000D02*
X+1362000Y+1980000D01*
X+1500000Y+1980000D01*
X+1100000Y+2496000D02*
X+1362000Y+2234000D01*
X+1500000Y+2234000D01*
X+1100000Y+2750000D02*
X+1362000Y+2488000D01*
X+1500000Y+2488000D01*
D11*
X+3712000Y+2380000D02*
X+3712000Y+2462000D01*
X+4074000Y+2824000D01*
D10*
X+4074000Y+2062000D02*
X+4074000Y+2574000D01*
X+4264500Y+2764500D01*
X+4328000Y+2824000D01*
X+3712000Y+2126000D02*
X+4010000Y+2126000D01*
X+4074000Y+2062000D01*
X+3712000Y+1364000D02*
X+3712000Y+1414000D01*
X+4048000Y+1750000D01*
X+4100000Y+1750000D01*
X+3712000Y+1110000D02*
X+3712000Y+1160000D01*
X+4048000Y+1496000D01*
X+4100000Y+1496000D01*
X+3712000Y+856000D02*
X+3712000Y+906000D01*
X+3764000Y+906000D01*
X+4100000Y+1242000D01*
X+4550000Y+1750000D02*
X+4836000Y+2036000D01*
X+4836000Y+2062000D01*
X+4550000Y+1496000D02*
X+4731001Y+1677001D01*
X+4731001Y+1780109D01*
X+5062892Y+2112000D01*
X+5090000Y+2112000D01*
X+5090000Y+2062000D01*
X+4550000Y+1242000D02*
X+4814280Y+1506280D01*
X+4814280Y+1693096D01*
X+5087249Y+1966065D01*
X+5248065Y+1966065D01*
X+5344000Y+2062000D01*
D11*
X+1150000Y+3650000D02*
X+1271579Y+3528421D01*
D12*
X+1282421Y+3517579D01*
D11*
X+1339545Y+3460455D01*
X+2135483Y+3460455D01*
X+2262000Y+3333938D01*
X+2262000Y+3277029D01*
X+2262000Y+3250000D01*
X+2262000Y+3277029D02*
X+2417706Y+3432735D01*
X+3777887Y+3432735D01*
X+3787178Y+3423444D01*
X+3787178Y+3110822D01*
X+4074000Y+2824000D01*
D10*
X+1500000Y+3250000D02*
X+2008000Y+3250000D01*
X+2262000Y+2996000D01*
D11*
X+1150000Y+3650000D02*
X+1150000Y+4150000D01*
X+1150000Y+4765136D01*
X+1159272Y+4774408D01*
X+1150000Y+4750000D01*
D10*
X+641000Y+2590000D02*
X+641000Y+2336000D01*
X+641000Y+2590000D02*
X+816247Y+2590000D01*
X+904809Y+2678562D01*
X+904809Y+2928398D01*
X+918689Y+2942278D01*
X+1192278Y+2942278D01*
X+1500000Y+3250000D01*
D11*
X+641000Y+3098000D02*
X+520802Y+3218198D01*
X+520802Y+3381804D01*
X+520802Y+3485802D01*
X+641000Y+3606000D01*
D10*
X+400000Y+2590000D02*
X+400000Y+3873000D01*
X+641000Y+4114000D01*
X+260000Y+2590000D02*
X+400000Y+2590000D01*
X+641000Y+2590000D01*
D11*
X+641000Y+2844000D02*
X+850000Y+3053000D01*
X+850000Y+3150000D01*
X+850000Y+3350000D01*
X+1150000Y+3650000D01*
X+1100000Y+900000D02*
X+1100000Y+990731D01*
X+1233297Y+1124028D01*
X+1649691Y+1124028D01*
X+1658944Y+1114775D01*
X+1800000Y+973719D01*
X+1800000Y+900000D01*
D10*
X+641000Y+1574000D02*
X+835410Y+1379590D01*
X+835410Y+1304465D01*
X+835410Y+795540D01*
X+960328Y+670622D01*
X+1124622Y+670622D01*
X+1354000Y+900000D01*
X+3404000Y+100000D02*
X+3271380Y-32620D01*
X+2385319Y-32620D01*
X+2366813Y-14114D01*
X+2366813Y+999110D01*
X+2163243Y+1202680D01*
X+1769320Y+1202680D01*
X+1500000Y+1472000D01*
X+641000Y+2336000D02*
X+833999Y+2336000D01*
X+900414Y+2269585D01*
X+900414Y+1309343D01*
X+940683Y+1269074D01*
X+1297074Y+1269074D01*
X+1500000Y+1472000D01*
X+5762000Y+350000D02*
X+5762000Y+738000D01*
X+5750000Y+750000D01*
X+5750000Y+1100000D01*
X+6356000Y+2594000D02*
X+6718031Y+2594000D01*
X+6742515Y+2618484D01*
X+6737000Y+2594000D01*
D11*
X+5650000Y+3650000D02*
X+5650000Y+4150000D01*
X+5650000Y+4650000D01*
D10*
X+5750000Y+1100000D02*
X+5880361Y+1100000D01*
X+6040343Y+940018D01*
X+6607018Y+940018D01*
X+6737000Y+1070000D01*
X+5904000Y+4150000D02*
X+6113088Y+4150000D01*
X+6214620Y+4251532D01*
X+6900980Y+4251532D01*
X+6924325Y+4228187D01*
X+6924325Y+1258627D01*
X+6868297Y+1202599D01*
X+6477401Y+1202599D01*
X+6356000Y+1324000D01*
X+5496000Y+1100000D02*
X+5677152Y+1281152D01*
X+5775541Y+1281152D01*
X+6131152Y+1281152D01*
X+6300000Y+1450000D01*
X+6609000Y+1450000D01*
X+6737000Y+1578000D01*
X+5242000Y+1100000D02*
X+5492000Y+1350000D01*
X+5550000Y+1350000D01*
X+6028040Y+1350000D01*
X+6077477Y+1399437D01*
X+6077477Y+1508383D01*
X+6273580Y+1704486D01*
X+6609486Y+1704486D01*
X+6737000Y+1832000D01*
D11*
X+5496000Y+1500000D02*
X+5496000Y+1658402D01*
X+5570098Y+1732500D01*
X+5602782Y+1765184D01*
X+6051018Y+1765184D01*
X+6051018Y+2549595D01*
X+6219106Y+2717683D01*
X+6606683Y+2717683D01*
X+6737000Y+2848000D01*
D10*
X+5904000Y+3650000D02*
X+6050000Y+3650000D01*
X+6150000Y+3550000D01*
X+6150000Y+3054000D01*
X+6356000Y+2848000D01*
X+2262000Y+1726000D02*
X+2470523Y+1934523D01*
X+2470523Y+2512523D01*
X+2600000Y+2642000D01*
X+2262000Y+1980000D02*
X+2408451Y+2126451D01*
X+2408451Y+2704451D01*
X+2600000Y+2896000D01*
X+2262000Y+2234000D02*
X+2357559Y+2329559D01*
X+2357559Y+2907559D01*
X+2600000Y+3150000D01*
X+2262000Y+2996000D02*
X+2262000Y+3046340D01*
X+2379655Y+3163995D01*
X+2379655Y+3279877D01*
X+2439162Y+3339384D01*
X+2946536Y+3339384D01*
X+2955932Y+3329988D01*
X+2955932Y+2385932D01*
X+2950000Y+2380000D01*
X+641000Y+1320000D02*
X+750000Y+1211000D01*
X+750000Y+900000D01*
X+750000Y+716066D01*
X+886971Y+579095D01*
X+1124905Y+579095D01*
X+1354000Y+350000D01*
D13*
X+260000Y+4876000D03*
D14*
X+641000Y+4876000D03*
X+260000Y+4622000D03*
X+641000Y+4622000D03*
X+260000Y+4368000D03*
X+641000Y+4368000D03*
X+260000Y+4114000D03*
X+641000Y+4114000D03*
X+260000Y+3860000D03*
X+641000Y+3860000D03*
X+260000Y+3606000D03*
X+641000Y+3606000D03*
X+260000Y+3352000D03*
X+641000Y+3352000D03*
X+260000Y+3098000D03*
X+641000Y+3098000D03*
X+260000Y+2844000D03*
X+641000Y+2844000D03*
X+260000Y+2590000D03*
X+641000Y+2590000D03*
X+260000Y+2336000D03*
X+641000Y+2336000D03*
X+260000Y+2082000D03*
X+641000Y+2082000D03*
X+260000Y+1828000D03*
X+641000Y+1828000D03*
X+260000Y+1574000D03*
X+641000Y+1574000D03*
X+260000Y+1320000D03*
X+641000Y+1320000D03*
X+260000Y+1066000D03*
X+641000Y+1066000D03*
X+260000Y+812000D03*
X+641000Y+812000D03*
X+260000Y+558000D03*
X+641000Y+558000D03*
X+260000Y+304000D03*
X+641000Y+304000D03*
D13*
X+6356000Y+4880000D03*
D14*
X+6737000Y+4880000D03*
X+6356000Y+4626000D03*
X+6737000Y+4626000D03*
X+6356000Y+4372000D03*
X+6737000Y+4372000D03*
X+6356000Y+4118000D03*
X+6737000Y+4118000D03*
X+6356000Y+3864000D03*
X+6737000Y+3864000D03*
X+6356000Y+3610000D03*
X+6737000Y+3610000D03*
X+6356000Y+3356000D03*
X+6737000Y+3356000D03*
X+6356000Y+3102000D03*
X+6737000Y+3102000D03*
X+6356000Y+2848000D03*
X+6737000Y+2848000D03*
X+6356000Y+2594000D03*
X+6737000Y+2594000D03*
X+6356000Y+2340000D03*
X+6737000Y+2340000D03*
X+6356000Y+2086000D03*
X+6737000Y+2086000D03*
X+6356000Y+1832000D03*
X+6737000Y+1832000D03*
X+6356000Y+1578000D03*
X+6737000Y+1578000D03*
X+6356000Y+1324000D03*
X+6737000Y+1324000D03*
X+6356000Y+1070000D03*
X+6737000Y+1070000D03*
X+6356000Y+816000D03*
X+6737000Y+816000D03*
X+6356000Y+562000D03*
X+6737000Y+562000D03*
X+6356000Y+308000D03*
X+6737000Y+308000D03*
D13*
X+1500000Y+3250000D03*
D15*
X+1500000Y+2996000D03*
X+1500000Y+2742000D03*
X+1500000Y+2488000D03*
X+1500000Y+2234000D03*
X+1500000Y+1980000D03*
X+1500000Y+1726000D03*
X+1500000Y+1472000D03*
X+2262000Y+1472000D03*
X+2262000Y+1726000D03*
X+2262000Y+1980000D03*
X+2262000Y+2234000D03*
X+2262000Y+2488000D03*
X+2262000Y+2742000D03*
X+2262000Y+2996000D03*
X+2262000Y+3250000D03*
D13*
X+2950000Y+2380000D03*
D15*
X+2950000Y+2126000D03*
X+2950000Y+1872000D03*
X+2950000Y+1618000D03*
X+2950000Y+1364000D03*
X+2950000Y+1110000D03*
X+2950000Y+856000D03*
X+2950000Y+602000D03*
X+3712000Y+602000D03*
X+3712000Y+856000D03*
X+3712000Y+1110000D03*
X+3712000Y+1364000D03*
X+3712000Y+1618000D03*
X+3712000Y+1872000D03*
X+3712000Y+2126000D03*
X+3712000Y+2380000D03*
D16*
X+5750000Y+1500000D03*
X+5496000Y+1500000D03*
X+5242000Y+1500000D03*
X+4988000Y+1500000D03*
X+5230000Y+5500000D03*
X+5230000Y+5246000D03*
X+5230000Y+4992000D03*
X+5230000Y+4738000D03*
X+5230000Y+4484000D03*
X+5230000Y+4230000D03*
X+5230000Y+3976000D03*
X+5750000Y+750000D03*
X+5496000Y+750000D03*
X+5242000Y+750000D03*
X+4988000Y+750000D03*
X+5750000Y+1100000D03*
X+5496000Y+1100000D03*
X+5242000Y+1100000D03*
X+4988000Y+1100000D03*
X+4050000Y+3250000D03*
X+4304000Y+3250000D03*
X+4558000Y+3250000D03*
X+4812000Y+3250000D03*
X+5066000Y+3250000D03*
X+5320000Y+3250000D03*
X+4550000Y+1750000D03*
X+4550000Y+1496000D03*
X+4550000Y+1242000D03*
X+4550000Y+988000D03*
X+4550000Y+734000D03*
X+4550000Y+480000D03*
X+2600000Y+3150000D03*
X+2600000Y+2896000D03*
X+2600000Y+2642000D03*
X+2600000Y+2388000D03*
X+2600000Y+2134000D03*
X+2600000Y+1880000D03*
X+1100000Y+2750000D03*
X+1100000Y+2496000D03*
X+1100000Y+2242000D03*
X+1100000Y+1988000D03*
X+1100000Y+1734000D03*
X+1100000Y+1480000D03*
X+4100000Y+1750000D03*
X+4100000Y+1496000D03*
X+4100000Y+1242000D03*
X+4100000Y+988000D03*
X+4100000Y+734000D03*
X+4100000Y+480000D03*
X+2550000Y+1530000D03*
X+2550000Y+1276000D03*
X+2550000Y+1022000D03*
X+2550000Y+768000D03*
X+2550000Y+514000D03*
X+2550000Y+260000D03*
X+3150000Y+100000D03*
X+3404000Y+100000D03*
X+5000000Y+350000D03*
X+5254000Y+350000D03*
X+5508000Y+350000D03*
X+5762000Y+350000D03*
D13*
X+4074000Y+2062000D03*
D15*
X+4328000Y+2062000D03*
X+4582000Y+2062000D03*
X+4836000Y+2062000D03*
X+5090000Y+2062000D03*
X+5344000Y+2062000D03*
X+5598000Y+2062000D03*
X+5852000Y+2062000D03*
X+5852000Y+2824000D03*
X+5598000Y+2824000D03*
X+5344000Y+2824000D03*
X+5090000Y+2824000D03*
X+4836000Y+2824000D03*
X+4582000Y+2824000D03*
X+4328000Y+2824000D03*
X+4074000Y+2824000D03*
D16*
X+1150000Y+3650000D03*
X+1404000Y+3650000D03*
X+1150000Y+4150000D03*
X+1404000Y+4150000D03*
X+1150000Y+4750000D03*
X+1404000Y+4750000D03*
X+1100000Y+900000D03*
X+1354000Y+900000D03*
X+1100000Y+350000D03*
X+1354000Y+350000D03*
X+1800000Y+900000D03*
X+2054000Y+900000D03*
X+5650000Y+4650000D03*
X+5904000Y+4650000D03*
X+5650000Y+4150000D03*
X+5904000Y+4150000D03*
X+5650000Y+3650000D03*
X+5904000Y+3650000D03*
D17*
X+0Y+0D02*
X+1650000Y+0D01*
X+7000000Y+0D02*
X+7000000Y+6000000D01*
X+5000000Y+6000000D01*
X+5000000Y+3700000D01*
X+4800000Y+3500000D01*
X+2200000Y+3500000D01*
X+2000000Y+3700000D02*
X+2000000Y+6000000D01*
X+0Y+6000000D01*
X+0Y+0D01*
X+2000000Y+3700000D02*
X+2200000Y+3500000D01*
X+5160000Y+0D02*
X+7000000Y+0D01*
X+1750000Y-200000D02*
X+5050000Y-200000D01*
X+1650000Y+0D02*
X+1750000Y-200000D01*
X+5160000Y+0D02*
X+5050000Y-200000D01*
X+4550045Y+50000D02*
X+4549508Y+63142D01*
X+4545144Y+89427D01*
X+4536029Y+115712D01*
X+4521182Y+141997D01*
X+4498470Y+168118D01*
X+4472185Y+187898D01*
X+4445900Y+200658D01*
X+4419615Y+208108D01*
X+4393330Y+210987D01*
X+4389000Y+211045D01*
X+4227955Y+50000D02*
X+4228492Y+63142D01*
X+4232856Y+89427D01*
X+4241971Y+115712D01*
X+4256818Y+141997D01*
X+4279530Y+168118D01*
X+4305815Y+187898D01*
X+4332100Y+200658D01*
X+4358385Y+208108D01*
X+4384670Y+210987D01*
X+4389000Y+211045D01*
X+4227955Y+50000D02*
X+4228492Y+36858D01*
X+4232856Y+10573D01*
X+4241971Y-15712D01*
X+4256818Y-41997D01*
X+4279530Y-68118D01*
X+4305815Y-87898D01*
X+4332100Y-100658D01*
X+4358385Y-108108D01*
X+4384670Y-110987D01*
X+4389000Y-111045D01*
X+4550045Y+50000D02*
X+4549508Y+36858D01*
X+4545144Y+10573D01*
X+4536029Y-15712D01*
X+4521182Y-41997D01*
X+4498470Y-68118D01*
X+4472185Y-87898D01*
X+4445900Y-100658D01*
X+4419615Y-108108D01*
X+4393330Y-110987D01*
X+4389000Y-111045D01*
X+6074045Y+5130000D02*
X+6073508Y+5143142D01*
X+6069144Y+5169427D01*
X+6060029Y+5195712D01*
X+6045182Y+5221997D01*
X+6022470Y+5248118D01*
X+5996185Y+5267898D01*
X+5969900Y+5280658D01*
X+5943615Y+5288108D01*
X+5917330Y+5290987D01*
X+5913000Y+5291045D01*
X+5751955Y+5130000D02*
X+5752492Y+5143142D01*
X+5756856Y+5169427D01*
X+5765971Y+5195712D01*
X+5780818Y+5221997D01*
X+5803530Y+5248118D01*
X+5829815Y+5267898D01*
X+5856100Y+5280658D01*
X+5882385Y+5288108D01*
X+5908670Y+5290987D01*
X+5913000Y+5291045D01*
X+5751955Y+5130000D02*
X+5752492Y+5116858D01*
X+5756856Y+5090573D01*
X+5765971Y+5064288D01*
X+5780818Y+5038003D01*
X+5803530Y+5011882D01*
X+5829815Y+4992102D01*
X+5856100Y+4979342D01*
X+5882385Y+4971892D01*
X+5908670Y+4969013D01*
X+5913000Y+4968955D01*
X+6074045Y+5130000D02*
X+6073508Y+5116858D01*
X+6069144Y+5090573D01*
X+6060029Y+5064288D01*
X+6045182Y+5038003D01*
X+6022470Y+5011882D01*
X+5996185Y+4992102D01*
X+5969900Y+4979342D01*
X+5943615Y+4971892D01*
X+5917330Y+4969013D01*
X+5913000Y+4968955D01*
X+1248045Y+5257000D02*
X+1247508Y+5270142D01*
X+1243144Y+5296427D01*
X+1234029Y+5322712D01*
X+1219182Y+5348997D01*
X+1196470Y+5375118D01*
X+1170185Y+5394898D01*
X+1143900Y+5407658D01*
X+1117615Y+5415108D01*
X+1091330Y+5417987D01*
X+1087000Y+5418045D01*
X+925955Y+5257000D02*
X+926492Y+5270142D01*
X+930856Y+5296427D01*
X+939971Y+5322712D01*
X+954818Y+5348997D01*
X+977530Y+5375118D01*
X+1003815Y+5394898D01*
X+1030100Y+5407658D01*
X+1056385Y+5415108D01*
X+1082670Y+5417987D01*
X+1087000Y+5418045D01*
X+925955Y+5257000D02*
X+926492Y+5243858D01*
X+930856Y+5217573D01*
X+939971Y+5191288D01*
X+954818Y+5165003D01*
X+977530Y+5138882D01*
X+1003815Y+5119102D01*
X+1030100Y+5106342D01*
X+1056385Y+5098892D01*
X+1082670Y+5096013D01*
X+1087000Y+5095955D01*
X+1248045Y+5257000D02*
X+1247508Y+5243858D01*
X+1243144Y+5217573D01*
X+1234029Y+5191288D01*
X+1219182Y+5165003D01*
X+1196470Y+5138882D01*
X+1170185Y+5119102D01*
X+1143900Y+5106342D01*
X+1117615Y+5098892D01*
X+1091330Y+5096013D01*
X+1087000Y+5095955D01*
M02*
