G04 PROTEUS GERBER X2 FILE*
%TF.GenerationSoftware,Labcenter,Proteus,8.12-SP2-Build31155*%
%TF.CreationDate,2021-12-06T20:36:36+00:00*%
%TF.FileFunction,Plated,1,2,PTH*%
%TF.FilePolarity,Positive*%
%TF.Part,Single*%
%TF.SameCoordinates,{41aeb68f-70a9-4567-b6d7-def337a2806a}*%
%FSLAX45Y45*%
%MOMM*%
G01*
%TA.AperFunction,ComponentDrill*%
%ADD57C,0.762000*%
%ADD58C,0.889000*%
%TA.AperFunction,ComponentDrill*%
%ADD59C,1.016000*%
%TD.AperFunction*%
D57*
X+260000Y+4876000D03*
D58*
X+641000Y+4876000D03*
X+260000Y+4622000D03*
X+641000Y+4622000D03*
X+260000Y+4368000D03*
X+641000Y+4368000D03*
X+260000Y+4114000D03*
X+641000Y+4114000D03*
X+260000Y+3860000D03*
X+641000Y+3860000D03*
X+260000Y+3606000D03*
X+641000Y+3606000D03*
X+260000Y+3352000D03*
X+641000Y+3352000D03*
X+260000Y+3098000D03*
X+641000Y+3098000D03*
X+260000Y+2844000D03*
X+641000Y+2844000D03*
X+260000Y+2590000D03*
X+641000Y+2590000D03*
X+260000Y+2336000D03*
X+641000Y+2336000D03*
X+260000Y+2082000D03*
X+641000Y+2082000D03*
X+260000Y+1828000D03*
X+641000Y+1828000D03*
X+260000Y+1574000D03*
X+641000Y+1574000D03*
X+260000Y+1320000D03*
X+641000Y+1320000D03*
X+260000Y+1066000D03*
X+641000Y+1066000D03*
X+260000Y+812000D03*
X+641000Y+812000D03*
X+260000Y+558000D03*
X+641000Y+558000D03*
X+260000Y+304000D03*
X+641000Y+304000D03*
D57*
X+6356000Y+4880000D03*
D58*
X+6737000Y+4880000D03*
X+6356000Y+4626000D03*
X+6737000Y+4626000D03*
X+6356000Y+4372000D03*
X+6737000Y+4372000D03*
X+6356000Y+4118000D03*
X+6737000Y+4118000D03*
X+6356000Y+3864000D03*
X+6737000Y+3864000D03*
X+6356000Y+3610000D03*
X+6737000Y+3610000D03*
X+6356000Y+3356000D03*
X+6737000Y+3356000D03*
X+6356000Y+3102000D03*
X+6737000Y+3102000D03*
X+6356000Y+2848000D03*
X+6737000Y+2848000D03*
X+6356000Y+2594000D03*
X+6737000Y+2594000D03*
X+6356000Y+2340000D03*
X+6737000Y+2340000D03*
X+6356000Y+2086000D03*
X+6737000Y+2086000D03*
X+6356000Y+1832000D03*
X+6737000Y+1832000D03*
X+6356000Y+1578000D03*
X+6737000Y+1578000D03*
X+6356000Y+1324000D03*
X+6737000Y+1324000D03*
X+6356000Y+1070000D03*
X+6737000Y+1070000D03*
X+6356000Y+816000D03*
X+6737000Y+816000D03*
X+6356000Y+562000D03*
X+6737000Y+562000D03*
X+6356000Y+308000D03*
X+6737000Y+308000D03*
D57*
X+1500000Y+3250000D03*
X+1500000Y+2996000D03*
X+1500000Y+2742000D03*
X+1500000Y+2488000D03*
X+1500000Y+2234000D03*
X+1500000Y+1980000D03*
X+1500000Y+1726000D03*
X+1500000Y+1472000D03*
X+2262000Y+1472000D03*
X+2262000Y+1726000D03*
X+2262000Y+1980000D03*
X+2262000Y+2234000D03*
X+2262000Y+2488000D03*
X+2262000Y+2742000D03*
X+2262000Y+2996000D03*
X+2262000Y+3250000D03*
X+2950000Y+2380000D03*
X+2950000Y+2126000D03*
X+2950000Y+1872000D03*
X+2950000Y+1618000D03*
X+2950000Y+1364000D03*
X+2950000Y+1110000D03*
X+2950000Y+856000D03*
X+2950000Y+602000D03*
X+3712000Y+602000D03*
X+3712000Y+856000D03*
X+3712000Y+1110000D03*
X+3712000Y+1364000D03*
X+3712000Y+1618000D03*
X+3712000Y+1872000D03*
X+3712000Y+2126000D03*
X+3712000Y+2380000D03*
D59*
X+5750000Y+1500000D03*
X+5496000Y+1500000D03*
X+5242000Y+1500000D03*
X+4988000Y+1500000D03*
X+5230000Y+5500000D03*
X+5230000Y+5246000D03*
X+5230000Y+4992000D03*
X+5230000Y+4738000D03*
X+5230000Y+4484000D03*
X+5230000Y+4230000D03*
X+5230000Y+3976000D03*
X+5750000Y+750000D03*
X+5496000Y+750000D03*
X+5242000Y+750000D03*
X+4988000Y+750000D03*
X+5750000Y+1100000D03*
X+5496000Y+1100000D03*
X+5242000Y+1100000D03*
X+4988000Y+1100000D03*
X+4050000Y+3250000D03*
X+4304000Y+3250000D03*
X+4558000Y+3250000D03*
X+4812000Y+3250000D03*
X+5066000Y+3250000D03*
X+5320000Y+3250000D03*
X+4550000Y+1750000D03*
X+4550000Y+1496000D03*
X+4550000Y+1242000D03*
X+4550000Y+988000D03*
X+4550000Y+734000D03*
X+4550000Y+480000D03*
X+2600000Y+3150000D03*
X+2600000Y+2896000D03*
X+2600000Y+2642000D03*
X+2600000Y+2388000D03*
X+2600000Y+2134000D03*
X+2600000Y+1880000D03*
X+1100000Y+2750000D03*
X+1100000Y+2496000D03*
X+1100000Y+2242000D03*
X+1100000Y+1988000D03*
X+1100000Y+1734000D03*
X+1100000Y+1480000D03*
X+4100000Y+1750000D03*
X+4100000Y+1496000D03*
X+4100000Y+1242000D03*
X+4100000Y+988000D03*
X+4100000Y+734000D03*
X+4100000Y+480000D03*
X+2550000Y+1530000D03*
X+2550000Y+1276000D03*
X+2550000Y+1022000D03*
X+2550000Y+768000D03*
X+2550000Y+514000D03*
X+2550000Y+260000D03*
X+3150000Y+100000D03*
X+3404000Y+100000D03*
X+5000000Y+350000D03*
X+5254000Y+350000D03*
X+5508000Y+350000D03*
X+5762000Y+350000D03*
D57*
X+4074000Y+2062000D03*
X+4328000Y+2062000D03*
X+4582000Y+2062000D03*
X+4836000Y+2062000D03*
X+5090000Y+2062000D03*
X+5344000Y+2062000D03*
X+5598000Y+2062000D03*
X+5852000Y+2062000D03*
X+5852000Y+2824000D03*
X+5598000Y+2824000D03*
X+5344000Y+2824000D03*
X+5090000Y+2824000D03*
X+4836000Y+2824000D03*
X+4582000Y+2824000D03*
X+4328000Y+2824000D03*
X+4074000Y+2824000D03*
D59*
X+1150000Y+3650000D03*
X+1404000Y+3650000D03*
X+1150000Y+4150000D03*
X+1404000Y+4150000D03*
X+1150000Y+4750000D03*
X+1404000Y+4750000D03*
X+1100000Y+900000D03*
X+1354000Y+900000D03*
X+1100000Y+350000D03*
X+1354000Y+350000D03*
X+1800000Y+900000D03*
X+2054000Y+900000D03*
X+5650000Y+4650000D03*
X+5904000Y+4650000D03*
X+5650000Y+4150000D03*
X+5904000Y+4150000D03*
X+5650000Y+3650000D03*
X+5904000Y+3650000D03*
M02*
