G04 PROTEUS GERBER X2 FILE*
%TF.GenerationSoftware,Labcenter,Proteus,8.12-SP2-Build31155*%
%TF.CreationDate,2021-12-06T20:36:36+00:00*%
%TF.FileFunction,Paste,Bot*%
%TF.FilePolarity,Positive*%
%TF.Part,Single*%
%TF.SameCoordinates,{41aeb68f-70a9-4567-b6d7-def337a2806a}*%
%FSLAX45Y45*%
%MOMM*%
G01*
%TA.AperFunction,Material*%
%ADD35R,1.447800X0.457200*%
%ADD36R,0.457200X1.447800*%
%TA.AperFunction,Material*%
%ADD37R,1.041400X0.558800*%
%TA.AperFunction,Material*%
%ADD38R,1.143000X2.692400*%
%ADD39R,1.143000X1.447800*%
%TA.AperFunction,Profile*%
%ADD17C,0.203200*%
%TD.AperFunction*%
D35*
X+2150000Y+415000D03*
X+2150000Y+350000D03*
X+2150000Y+285000D03*
X+2150000Y+220000D03*
X+1710000Y+220000D03*
X+1710000Y+285000D03*
X+1710000Y+350000D03*
X+1710000Y+415000D03*
X+3600000Y+3115000D03*
X+3600000Y+3050000D03*
X+3600000Y+2985000D03*
X+3600000Y+2920000D03*
X+3160000Y+2920000D03*
X+3160000Y+2985000D03*
X+3160000Y+3050000D03*
X+3160000Y+3115000D03*
X+700000Y+5715000D03*
X+700000Y+5650000D03*
X+700000Y+5585000D03*
X+700000Y+5520000D03*
X+260000Y+5520000D03*
X+260000Y+5585000D03*
X+260000Y+5650000D03*
X+260000Y+5715000D03*
X+6700000Y+5715000D03*
X+6700000Y+5650000D03*
X+6700000Y+5585000D03*
X+6700000Y+5520000D03*
X+6260000Y+5520000D03*
X+6260000Y+5585000D03*
X+6260000Y+5650000D03*
X+6260000Y+5715000D03*
D36*
X+5785000Y+5390000D03*
X+5720000Y+5390000D03*
X+5655000Y+5390000D03*
X+5590000Y+5390000D03*
X+5590000Y+5830000D03*
X+5655000Y+5830000D03*
X+5720000Y+5830000D03*
X+5785000Y+5830000D03*
D37*
X+1700000Y+5695000D03*
X+1700000Y+5600000D03*
X+1700000Y+5505000D03*
X+1430000Y+5505000D03*
X+1430000Y+5695000D03*
D35*
X+6050000Y+3215000D03*
X+6050000Y+3150000D03*
X+6050000Y+3085000D03*
X+6050000Y+3020000D03*
X+5610000Y+3020000D03*
X+5610000Y+3085000D03*
X+5610000Y+3150000D03*
X+5610000Y+3215000D03*
D38*
X+1850000Y+5090000D03*
X+1550000Y+5090000D03*
X+1860000Y+4450000D03*
X+1560000Y+4450000D03*
D39*
X+1850000Y+3970000D03*
X+1670000Y+3970000D03*
X+3430000Y+2270000D03*
X+3250000Y+2270000D03*
D38*
X+3500000Y+1800000D03*
X+3200000Y+1800000D03*
X+3460000Y+1270000D03*
X+3160000Y+1270000D03*
X+3440000Y+740000D03*
X+3140000Y+740000D03*
D39*
X+4250000Y+2410000D03*
X+4070000Y+2410000D03*
X+4670000Y+2410000D03*
X+4490000Y+2410000D03*
X+1950000Y+3160000D03*
X+1770000Y+3160000D03*
X+1940000Y+2720000D03*
X+1760000Y+2720000D03*
X+1960000Y+2310000D03*
X+1780000Y+2310000D03*
X+1960000Y+1910000D03*
X+1780000Y+1910000D03*
X+3460000Y+2590000D03*
X+3280000Y+2590000D03*
X+5280000Y+2400000D03*
X+5100000Y+2400000D03*
X+1950000Y+1550000D03*
X+1770000Y+1550000D03*
X+5730000Y+2410000D03*
X+5550000Y+2410000D03*
D17*
X+0Y+0D02*
X+1650000Y+0D01*
X+7000000Y+0D02*
X+7000000Y+6000000D01*
X+5000000Y+6000000D01*
X+5000000Y+3700000D01*
X+4800000Y+3500000D01*
X+2200000Y+3500000D01*
X+2000000Y+3700000D02*
X+2000000Y+6000000D01*
X+0Y+6000000D01*
X+0Y+0D01*
X+2000000Y+3700000D02*
X+2200000Y+3500000D01*
X+5160000Y+0D02*
X+7000000Y+0D01*
X+1750000Y-200000D02*
X+5050000Y-200000D01*
X+1650000Y+0D02*
X+1750000Y-200000D01*
X+5160000Y+0D02*
X+5050000Y-200000D01*
X+4550045Y+50000D02*
X+4549508Y+63142D01*
X+4545144Y+89427D01*
X+4536029Y+115712D01*
X+4521182Y+141997D01*
X+4498470Y+168118D01*
X+4472185Y+187898D01*
X+4445900Y+200658D01*
X+4419615Y+208108D01*
X+4393330Y+210987D01*
X+4389000Y+211045D01*
X+4227955Y+50000D02*
X+4228492Y+63142D01*
X+4232856Y+89427D01*
X+4241971Y+115712D01*
X+4256818Y+141997D01*
X+4279530Y+168118D01*
X+4305815Y+187898D01*
X+4332100Y+200658D01*
X+4358385Y+208108D01*
X+4384670Y+210987D01*
X+4389000Y+211045D01*
X+4227955Y+50000D02*
X+4228492Y+36858D01*
X+4232856Y+10573D01*
X+4241971Y-15712D01*
X+4256818Y-41997D01*
X+4279530Y-68118D01*
X+4305815Y-87898D01*
X+4332100Y-100658D01*
X+4358385Y-108108D01*
X+4384670Y-110987D01*
X+4389000Y-111045D01*
X+4550045Y+50000D02*
X+4549508Y+36858D01*
X+4545144Y+10573D01*
X+4536029Y-15712D01*
X+4521182Y-41997D01*
X+4498470Y-68118D01*
X+4472185Y-87898D01*
X+4445900Y-100658D01*
X+4419615Y-108108D01*
X+4393330Y-110987D01*
X+4389000Y-111045D01*
X+6074045Y+5130000D02*
X+6073508Y+5143142D01*
X+6069144Y+5169427D01*
X+6060029Y+5195712D01*
X+6045182Y+5221997D01*
X+6022470Y+5248118D01*
X+5996185Y+5267898D01*
X+5969900Y+5280658D01*
X+5943615Y+5288108D01*
X+5917330Y+5290987D01*
X+5913000Y+5291045D01*
X+5751955Y+5130000D02*
X+5752492Y+5143142D01*
X+5756856Y+5169427D01*
X+5765971Y+5195712D01*
X+5780818Y+5221997D01*
X+5803530Y+5248118D01*
X+5829815Y+5267898D01*
X+5856100Y+5280658D01*
X+5882385Y+5288108D01*
X+5908670Y+5290987D01*
X+5913000Y+5291045D01*
X+5751955Y+5130000D02*
X+5752492Y+5116858D01*
X+5756856Y+5090573D01*
X+5765971Y+5064288D01*
X+5780818Y+5038003D01*
X+5803530Y+5011882D01*
X+5829815Y+4992102D01*
X+5856100Y+4979342D01*
X+5882385Y+4971892D01*
X+5908670Y+4969013D01*
X+5913000Y+4968955D01*
X+6074045Y+5130000D02*
X+6073508Y+5116858D01*
X+6069144Y+5090573D01*
X+6060029Y+5064288D01*
X+6045182Y+5038003D01*
X+6022470Y+5011882D01*
X+5996185Y+4992102D01*
X+5969900Y+4979342D01*
X+5943615Y+4971892D01*
X+5917330Y+4969013D01*
X+5913000Y+4968955D01*
X+1248045Y+5257000D02*
X+1247508Y+5270142D01*
X+1243144Y+5296427D01*
X+1234029Y+5322712D01*
X+1219182Y+5348997D01*
X+1196470Y+5375118D01*
X+1170185Y+5394898D01*
X+1143900Y+5407658D01*
X+1117615Y+5415108D01*
X+1091330Y+5417987D01*
X+1087000Y+5418045D01*
X+925955Y+5257000D02*
X+926492Y+5270142D01*
X+930856Y+5296427D01*
X+939971Y+5322712D01*
X+954818Y+5348997D01*
X+977530Y+5375118D01*
X+1003815Y+5394898D01*
X+1030100Y+5407658D01*
X+1056385Y+5415108D01*
X+1082670Y+5417987D01*
X+1087000Y+5418045D01*
X+925955Y+5257000D02*
X+926492Y+5243858D01*
X+930856Y+5217573D01*
X+939971Y+5191288D01*
X+954818Y+5165003D01*
X+977530Y+5138882D01*
X+1003815Y+5119102D01*
X+1030100Y+5106342D01*
X+1056385Y+5098892D01*
X+1082670Y+5096013D01*
X+1087000Y+5095955D01*
X+1248045Y+5257000D02*
X+1247508Y+5243858D01*
X+1243144Y+5217573D01*
X+1234029Y+5191288D01*
X+1219182Y+5165003D01*
X+1196470Y+5138882D01*
X+1170185Y+5119102D01*
X+1143900Y+5106342D01*
X+1117615Y+5098892D01*
X+1091330Y+5096013D01*
X+1087000Y+5095955D01*
M02*
